<svg width="22" height="32" fill="none" xmlns="http://www.w3.org/2000/svg"><g clip-path="url('#clip0_1_1002')" stroke="#1C2752" stroke-width="2" stroke-linecap="round" stroke-linejoin="round"><path d="M11 1C5.48 1 1 5.427 1 10.88c0 6.275 6.667 16.218 9.115 19.652.101.145.234.263.388.344a1.063 1.063 0 0 0 .994 0c.154-.081.287-.199.388-.344C14.333 27.099 21 17.16 21 10.88 21 5.427 16.52 1 11 1Z"/><path d="M11 16a4 4 0 1 0 0-8 4 4 0 0 0 0 8Z"/></g><defs><clipPath id="clip0_1_1002"><path fill="#fff" d="M0 0h22v32H0z"/></clipPath></defs></svg>