<svg width="23" height="27" fill="none" xmlns="http://www.w3.org/2000/svg"><path d="M20.404 16.603h2.522v-2.175h-7.29c-.132 2.256-1.956 4.046-4.186 4.046s-4.054-1.79-4.186-4.046H.447v2.175h2.081c.111.446.257.885.432 1.316.199.485.435.948.708 1.386l-1.821 1.872 2.868 2.948 1.825-1.874a8.977 8.977 0 0 0 2.94 1.242v2.608h4.062v-2.63a9.188 9.188 0 0 0 1.517-.504 8.908 8.908 0 0 0 1.421-.773l1.793 1.841 2.871-2.95-1.821-1.872c.249-.412.463-.845.65-1.294.174-.43.32-.87.431-1.316ZM19.32 4.97v4.39c0 .297-.236.54-.528.54h-.375a.535.535 0 0 1-.53-.54V3.827a11.043 11.043 0 0 0-3.61-1.602v7.617c0 .298-.237.54-.53.54H9.615a.535.535 0 0 1-.53-.54V2.226c-1.29.315-2.508.871-3.594 1.602V9.36c0 .298-.237.54-.529.54h-.375a.535.535 0 0 1-.529-.54V4.97a11.513 11.513 0 0 0-3.61 8.398h22.479A11.466 11.466 0 0 0 19.32 4.97Z" fill="#FFB342"/><path d="M13.219 8.934c0 .251-.177.454-.4.454h-2.265c-.218 0-.4-.203-.4-.454v-7.58c0-.251.177-.455.4-.455h2.264c.218 0 .4.204.4.455v7.58Z" fill="#FFB342"/></svg>