<svg aria-hidden="true" style="width:0;height:0;position:absolute;overflow:hidden" xmlns="http://www.w3.org/2000/svg"><defs><symbol id="icon-circle" viewBox="0 0 32 32"><path fill="none" stroke="#ffb342" style="stroke:var(--color1,#ffb342)" stroke-miterlimit="10" stroke-width="2.526" d="M30.242 15.963C30.24 8.078 23.848 1.686 15.963 1.684 8.078 1.686 1.686 8.078 1.684 15.963c.002 7.885 6.394 14.277 14.279 14.279 7.885-.002 14.277-6.394 14.279-14.279z"/></symbol><symbol id="icon-pencil" viewBox="0 0 32 32"><path fill="#ffb342" style="fill:var(--color1,#ffb342)" d="M28.05.626a1.631 1.631 0 0 0-.499-.449l-.008-.004a1.29 1.29 0 0 0-.647-.171c-.211 0-.411.05-.587.139l.008-.003a1.585 1.585 0 0 0-.522.42l-.002.003-1.202 1.468c-.142.18-.228.411-.228.661v.015-.001c0 .252.082.494.228.674l1.102 1.351c.071.089.158.16.252.208a.653.653 0 0 0 .601-.002l-.004.002a.805.805 0 0 0 .251-.206l.001-.002 1.173-1.433c.592-.725.647-1.909.082-2.67zm-5.892 4.387L4.608 26.51a1.132 1.132 0 0 0-.224.462l-.002.008-.809 2.967a.55.55 0 0 0-.002.251l-.001-.004c.018.082.05.156.1.215a.366.366 0 0 0 .172.122l.003.001c.068.02.137.018.203-.005l2.416-.996a.857.857 0 0 0 .379-.274l.001-.002 17.52-21.541c.157-.202.253-.46.253-.739V6.96v.001-.016a1.2 1.2 0 0 0-.255-.742l.002.003-.967-1.193a.8.8 0 0 0-.618-.315h-.001a.802.802 0 0 0-.616.313l-.001.002z"/></symbol><symbol id="icon-square" viewBox="0 0 32 32"><path fill="none" stroke="#ffb342" style="stroke:var(--color1,#ffb342)" stroke-linejoin="round" stroke-linecap="round" stroke-width="2.667" d="M27.333 10.891v15.996c0 .456-.073.908-.216 1.331a3.608 3.608 0 0 1-.619 1.135l.005-.007c-.25.309-.556.562-.904.746l-.016.008a2.344 2.344 0 0 1-1.084.265h-17c-.752 0-1.472-.367-2.004-1.019-.531-.653-.829-1.536-.829-2.459V6.023c0-.923.299-1.807.829-2.459.532-.653 1.253-1.019 2.004-1.019h11.863"/></symbol><symbol id="icon-circle-orange" viewBox="0 0 32 32"><path fill="#ffb342" style="fill:var(--color1,#ffb342)" d="M16 32c8.837 0 16-7.163 16-16S24.837 0 16 0 0 7.163 0 16s7.163 16 16 16z"/></symbol><symbol id="icon-Vector-black" viewBox="0 0 32 32"><path fill="none" stroke="#1c2752" style="stroke:var(--color2,#1c2752)" stroke-linejoin="round" stroke-linecap="round" stroke-width="4.267" d="M29.867 4.267 10.454 27.734l-8.32-8.8"/></symbol><symbol id="icon-Vector-orange" viewBox="0 0 32 32"><path fill="none" stroke="#ffb342" style="stroke:var(--color1,#ffb342)" stroke-linejoin="round" stroke-linecap="round" stroke-width="4.364" d="M28.268 5.658 11.003 26.211 3.608 17.99"/></symbol><symbol id="icon-prise" viewBox="0 0 26 32"><path fill="none" stroke="#ffb342" style="stroke:var(--color1,#ffb342)" stroke-linejoin="round" stroke-linecap="round" stroke-width="2.37" d="M21.333 13.236v14.219c0 .405-.065.807-.192 1.183a3.213 3.213 0 0 1-.55 1.009l.005-.006c-.222.275-.494.5-.804.663l-.014.007c-.28.147-.611.234-.963.236H3.703c-.668 0-1.308-.326-1.781-.905-.472-.581-.737-1.365-.737-2.185V8.911c0-.82.265-1.606.737-2.185.473-.581 1.114-.905 1.781-.905h10.545"/><path fill="#ffb342" style="fill:var(--color1,#ffb342)" d="M25.811.417a1.08 1.08 0 0 0-.333-.299l-.005-.003a.86.86 0 0 0-.431-.114.861.861 0 0 0-.392.093l.005-.002c-.139.07-.255.165-.348.28l-.002.002-.801.979a.71.71 0 0 0-.152.441v.01c0 .168.055.329.152.449l.735.901a.517.517 0 0 0 .168.139.433.433 0 0 0 .401-.001l-.002.001a.527.527 0 0 0 .168-.138l.001-.001.782-.955c.395-.484.431-1.273.055-1.78zm-3.928 2.925-11.7 14.331a.765.765 0 0 0-.15.308l-.001.005-.54 1.978a.426.426 0 0 0-.002.168v-.003a.325.325 0 0 0 .066.143.25.25 0 0 0 .114.081h.002a.215.215 0 0 0 .135-.004l1.611-.664a.572.572 0 0 0 .253-.183l.001-.001L23.352 5.14a.8.8 0 0 0 .168-.493V4.626a.801.801 0 0 0-.17-.495l.001.002-.645-.795a.534.534 0 0 0-.412-.21h-.001a.53.53 0 0 0-.41.209l-.001.001z"/></symbol><symbol id="icon-casca" viewBox="0 0 27 32"><path fill="#ffb342" style="fill:var(--color1,#ffb342)" d="M24.183 19.677h2.988V17.1h-8.639c-.157 2.674-2.319 4.795-4.962 4.795S8.765 19.774 8.608 17.1H.529v2.577h2.467c.132.53.305 1.049.512 1.56.236.575.515 1.124.839 1.644l-2.159 2.218 3.4 3.494 2.162-2.222a10.69 10.69 0 0 0 3.486 1.472v3.09h4.814v-3.116a10.86 10.86 0 0 0 1.798-.597 10.54 10.54 0 0 0 1.684-.917l2.124 2.183 3.403-3.497-2.159-2.218a11.276 11.276 0 0 0 1.282-3.094zM22.899 5.889v5.203c0 .353-.281.64-.627.64h-.444a.633.633 0 0 1-.627-.64V4.536a13.083 13.083 0 0 0-4.279-1.899v9.027a.633.633 0 0 1-.627.639h-4.9a.633.633 0 0 1-.627-.639V2.637a13.315 13.315 0 0 0-4.26 1.899v6.556c0 .353-.281.64-.627.64h-.444a.633.633 0 0 1-.627-.64V5.889a13.646 13.646 0 0 0-4.279 9.953h26.642A13.587 13.587 0 0 0 22.9 5.889z"/><path fill="#ffb342" style="fill:var(--color1,#ffb342)" d="M15.667 10.588c0 .298-.21.539-.475.539h-2.684c-.258 0-.474-.241-.474-.538V1.605c0-.298.21-.538.474-.538h2.684c.258 0 .475.241.475.538v8.984z"/></symbol></defs></svg>