<svg aria-hidden="true" style="width:0;height:0;position:absolute;overflow:hidden" xmlns="http://www.w3.org/2000/svg"><defs><symbol id="icon-phone" viewBox="0 0 32 32"><path fill="none" stroke="#1c2752" style="stroke:var(--color1,#1c2752)" stroke-miterlimit="10" stroke-width="2.462" d="M29.846 24.377c-1.126-1.136-3.857-2.794-5.182-3.462-1.727-.869-1.868-.94-3.225.068-.905.672-1.506 1.273-2.565 1.047-1.058-.226-3.36-1.499-5.374-3.508-2.015-2.006-3.361-4.374-3.588-5.429-.226-1.056.384-1.649 1.05-2.556.939-1.279.868-1.492.065-3.217-.625-1.342-2.332-4.047-3.472-5.169-1.22-1.204-1.22-.991-2.006-.665-.706.3-1.309.627-1.876 1.003l.042-.026c-1.136.756-1.767 1.382-2.208 2.325-.441.942-.64 3.151 1.637 7.286 2.278 4.138 3.877 6.252 7.183 9.551 3.307 3.297 5.85 5.071 9.567 7.154 4.598 2.575 6.363 2.073 7.307 1.633.945-.441 1.575-1.066 2.332-2.201.382-.58.709-1.194.98-1.833.327-.783.54-.783-.667-2.002z"/></symbol><symbol id="icon-facebook" viewBox="0 0 34 32"><path fill="#1c2752" style="fill:var(--color1,#1c2752)" d="M32.916 16.901c0-8.427-7.095-15.259-15.845-15.259-8.752 0-15.847 6.834-15.847 15.259 0 7.616 5.796 13.929 13.369 15.076V21.314h-4.021v-4.412h4.025v-3.36c0-3.824 2.364-5.938 5.986-5.938 1.733 0 3.547.297 3.547.297v3.756h-1.998c-1.968 0-2.583 1.175-2.583 2.384v2.862h4.395l-.702 4.411H19.55v10.663c7.577-1.145 13.369-7.458 13.369-15.076z"/></symbol><symbol id="icon-pinterest" viewBox="0 0 32 32"><path fill="#1c2752" style="fill:var(--color1,#1c2752)" d="M15.823 0C7.4 0 .572 6.826.572 15.247c0 6.24 3.759 11.604 9.132 13.965-.042-1.061-.007-2.341.264-3.498l1.962-8.31s-.49-.973-.49-2.41c0-2.26 1.307-3.948 2.941-3.948 1.389 0 2.056 1.041 2.056 2.287 0 1.395-.893 3.478-1.347 5.411-.382 1.62.808 2.934 2.41 2.934 2.887 0 4.834-3.71 4.834-8.108 0-3.341-2.253-5.839-6.346-5.839-4.623 0-7.512 3.451-7.512 7.303 0 1.327.396 2.267 1.011 2.988.278.333.32.472.217.852-.076.278-.239.952-.313 1.224-.103.387-.416.524-.763.381-2.132-.871-3.126-3.2-3.126-5.826 0-4.328 3.656-9.523 10.902-9.523 5.822 0 9.656 4.214 9.656 8.733 0 5.984-3.33 10.449-8.232 10.449-1.647 0-3.193-.893-3.725-1.9 0 0-.884 3.512-1.075 4.194-.32 1.177-.953 2.348-1.533 3.267 1.294.396 2.782.624 4.323.625h.001c8.424 0 15.254-6.826 15.254-15.245 0-8.421-6.823-15.254-15.247-15.254z"/></symbol><symbol id="icon-instagram" viewBox="0 0 30 32"><path fill="#1c2752" style="fill:var(--color1,#1c2752)" d="M21.267 3.966a6.404 6.404 0 0 1 4.418 1.768 5.916 5.916 0 0 1 1.836 4.252v12.047a5.915 5.915 0 0 1-1.834 4.252l-.002.002a6.372 6.372 0 0 1-4.416 1.768H8.755a6.378 6.378 0 0 1-4.419-1.771l.002.002a5.916 5.916 0 0 1-1.836-4.252V9.987a5.911 5.911 0 0 1 1.834-4.252l.002-.002a6.372 6.372 0 0 1 4.416-1.768h12.513zm0-2.408H8.757C3.942 1.556.001 5.349.001 9.987v12.045c0 4.638 3.941 8.433 8.758 8.433h12.509c4.817 0 8.758-3.795 8.758-8.433V9.988c0-4.638-3.941-8.433-8.758-8.433z"/><path fill="#1c2752" style="fill:var(--color1,#1c2752)" d="M23.141 9.989c-.371 0-.733-.106-1.041-.303a1.835 1.835 0 0 1-.686-.8l-.005-.012a1.71 1.71 0 0 1-.106-1.056l-.002.011c.072-.35.253-.674.514-.926.263-.253.596-.423.96-.493a1.951 1.951 0 0 1 1.085.103c.344.138.637.369.842.665.198.281.316.63.316 1.007 0 .502-.21.956-.548 1.276l-.001.001a1.93 1.93 0 0 1-1.329.529zm-8.13 1.204c.99 0 1.957.283 2.779.813a4.839 4.839 0 0 1 1.844 2.163c.379.879.478 1.849.286 2.784a4.783 4.783 0 0 1-1.369 2.466l-.002.002a5.073 5.073 0 0 1-2.562 1.319 5.165 5.165 0 0 1-2.927-.287l.035.012a5.001 5.001 0 0 1-2.235-1.759l-.011-.016a4.655 4.655 0 0 1-.844-2.678 4.73 4.73 0 0 1 1.467-3.405 5.087 5.087 0 0 1 3.527-1.413h.01-.001zm0-2.408h-.01a7.678 7.678 0 0 0-4.19 1.236l.03-.018A7.34 7.34 0 0 0 8.096 13.2l-.018.047a6.87 6.87 0 0 0-.572 2.767c0 .499.052.986.152 1.456l-.008-.046a7.167 7.167 0 0 0 2.052 3.698l.003.002a7.576 7.576 0 0 0 3.795 1.971l.048.008a7.769 7.769 0 0 0 4.335-.413 7.504 7.504 0 0 0 3.353-2.638l.016-.023a7.042 7.042 0 0 0 1.267-4.015c0-1.918-.792-3.756-2.2-5.112a7.628 7.628 0 0 0-5.285-2.117h-.022.001z"/></symbol><symbol id="icon-mail" viewBox="0 0 41 32"><path fill="none" stroke="#1c2752" style="stroke:var(--color1,#1c2752)" stroke-linejoin="round" stroke-linecap="round" stroke-width="2.909" d="M35.636 1.455H5.091a3.636 3.636 0 0 0-3.636 3.636v21.818a3.636 3.636 0 0 0 3.636 3.636v0h30.545a3.636 3.636 0 0 0 3.636-3.636v0V5.091a3.636 3.636 0 0 0-3.636-3.636v0z"/><path fill="none" stroke="#1c2752" style="stroke:var(--color1,#1c2752)" stroke-linejoin="round" stroke-linecap="round" stroke-width="2.909" d="m7.273 7.273 13.091 10.182L33.455 7.273"/></symbol><symbol id="icon-twitter" viewBox="0 0 38 32"><path fill="#1c2752" style="fill:var(--color1,#1c2752)" d="M36.662 5.005a15.124 15.124 0 0 1-4.236 1.146 7.302 7.302 0 0 0 3.245-4.015 14.802 14.802 0 0 1-4.686 1.76 7.427 7.427 0 0 0-5.386-2.299c-4.076 0-7.375 3.251-7.375 7.258a6.988 6.988 0 0 0 .19 1.655A21.03 21.03 0 0 1 3.209 2.923a7.171 7.171 0 0 0-1.003 3.648c0 2.517 1.313 4.741 3.296 6.044a7.31 7.31 0 0 1-3.354-.906v.09c0 3.52 2.547 6.449 5.917 7.115a7.543 7.543 0 0 1-1.943.255 7.01 7.01 0 0 1-1.386-.135c.937 2.884 3.664 4.981 6.895 5.041a14.95 14.95 0 0 1-9.162 3.108 15.225 15.225 0 0 1-1.76-.105 20.877 20.877 0 0 0 11.29 3.281c13.584 0 21.005-11.063 21.005-20.657 0-.315-.008-.629-.023-.936a14.86 14.86 0 0 0 3.68-3.76z"/></symbol></defs></svg>