<svg aria-hidden="true" style="width:0;height:0;position:absolute;overflow:hidden" xmlns="http://www.w3.org/2000/svg"><defs><symbol id="icon-Clock" viewBox="0 0 32 32"><path d="M16 0C7.164 0 0 7.164 0 16s7.164 16 16 16 16-7.164 16-16S24.836 0 16 0zm7.385 18.462H16a1.23 1.23 0 0 1-1.23-1.231V6.154a1.228 1.228 0 0 1 2.1-.87c.231.23.36.544.36.87V16h6.154a1.232 1.232 0 0 1 1.231 1.23 1.23 1.23 0 0 1-1.231 1.231z"/></symbol><symbol id="icon-Men" viewBox="0 0 29 32"><path d="M19.706 2.327C18.359.826 16.477 0 14.4 0c-2.088 0-3.976.821-5.317 2.313-1.356 1.508-2.016 3.557-1.861 5.77C7.529 12.449 10.749 16 14.4 16s6.865-3.551 7.177-7.916c.157-2.193-.508-4.238-1.871-5.757zM26.584 32H2.215c-.319.004-.635-.065-.925-.202s-.546-.34-.751-.593c-.45-.555-.631-1.313-.497-2.079C.626 25.782 2.45 22.972 5.316 21c2.546-1.751 5.772-2.714 9.083-2.714s6.537.964 9.083 2.714c2.866 1.972 4.689 4.781 5.274 8.125.134.766-.047 1.524-.497 2.079-.204.253-.461.455-.751.593s-.606.207-.925.203z"/></symbol></defs></svg>