<svg aria-hidden="true" style="position:absolute;width:0;height:0;overflow:hidden" xmlns="http://www.w3.org/2000/svg"><defs><symbol id="icon-company-3" viewBox="0 0 99 32"><path fill="#1c2752" style="fill:var(--color1, #1c2752)" opacity=".4" d="M39.311 13.174v-4.36h-1.129c-.467 0-.869.039-1.207.117a1.775 1.775 0 0 0-.831.389c-.216.182-.376.433-.48.753s-.156.722-.156 1.207v11.601c0 .363.035.701.104 1.012.078.303.195.571.35.805.164.225.372.402.623.532.26.13.571.195.934.195.597 0 1.042-.173 1.337-.519.303-.346.454-.843.454-1.492v-2.349h.973v2.362c0 .891-.229 1.592-.688 2.102s-1.142.766-2.05.766c-.545 0-1.012-.091-1.401-.273a2.615 2.615 0 0 1-.934-.727 3.164 3.164 0 0 1-.519-1.09 5.429 5.429 0 0 1-.156-1.324v-11.16c0-.286.004-.575.013-.869.009-.303.043-.593.104-.869a3.36 3.36 0 0 1 .298-.792c.138-.251.329-.467.571-.649a2.91 2.91 0 0 1 .947-.428c.389-.113.861-.169 1.414-.169h2.401v5.23h-.973zm6.839 10.498c0 .381-.048.731-.143 1.051s-.238.597-.428.83c-.19.234-.428.415-.714.545-.277.13-.601.195-.973.195s-.701-.061-.986-.182a1.93 1.93 0 0 1-.701-.48 2.26 2.26 0 0 1-.415-.753 3.106 3.106 0 0 1-.143-.96v-8.993c0-.337.048-.649.143-.934.095-.294.238-.545.428-.753.19-.216.424-.381.701-.493.285-.121.614-.182.986-.182h2.245v11.108zm-3.53.325c0 .398.108.735.324 1.012.225.277.545.415.96.415.407 0 .718-.156.934-.467.225-.32.337-.705.337-1.155V13.434h-1.272c-.415 0-.735.138-.96.415-.216.277-.324.614-.324 1.012v9.136zm9.784 2.037h-.973V15.121c0-.398-.112-.735-.337-1.012-.216-.277-.528-.415-.934-.415h-1.285v12.341h-.973v-13.21h2.258c.363 0 .683.061.96.182.285.113.523.277.714.493.19.208.333.459.428.753.095.286.143.597.143.934v10.849zm1.363-2.998h.973v.973c0 .398.108.735.324 1.012.225.268.545.402.961.402.407 0 .718-.134.934-.402.225-.277.337-.614.337-1.012v-1.635c0-.285-.048-.549-.143-.792a2.897 2.897 0 0 0-.363-.714 4.216 4.216 0 0 0-.52-.662c-.19-.208-.385-.415-.584-.623a29.36 29.36 0 0 1-.714-.74 6.68 6.68 0 0 1-.61-.792 4.591 4.591 0 0 1-.441-.895 3.176 3.176 0 0 1-.156-1.012v-1.207c0-.346.048-.662.143-.947.095-.294.238-.545.428-.753.19-.216.424-.381.701-.493.285-.121.614-.182.986-.182.363 0 .683.061.96.182.286.113.523.277.714.493.19.208.333.459.428.753.095.285.143.601.143.947v1.064h-.973v-1.142c0-.398-.113-.735-.337-1.012-.216-.277-.528-.415-.934-.415-.415 0-.735.138-.961.415-.216.277-.324.614-.324 1.012v1.285c0 .294.048.571.143.83.095.251.216.489.363.714.156.225.329.446.519.662l.597.623c.242.251.476.502.701.753a5.2 5.2 0 0 1 .61.792c.182.277.325.571.428.882.112.303.169.627.169.973v1.544c0 .337-.048.653-.143.947a2.174 2.174 0 0 1-.428.753c-.19.208-.428.372-.714.493a2.38 2.38 0 0 1-.96.182c-.372 0-.701-.061-.986-.182a2.042 2.042 0 0 1-.701-.493 2.14 2.14 0 0 1-.428-.753 3.064 3.064 0 0 1-.143-.947v-.882zm6.112-9.343h-1.077v-.869h1.077v-1.635h.973v1.635h1.778v.869h-1.778v10.303c0 .398.108.735.324 1.012.216.268.532.402.948.402h.428v.882h-.428c-.372 0-.701-.061-.986-.182a2.051 2.051 0 0 1-.701-.493 2.243 2.243 0 0 1-.415-.753 3.064 3.064 0 0 1-.143-.947V13.691zm6.579-.078a1.813 1.813 0 0 0-.467-.052c-.415 0-.735.138-.961.415-.216.277-.324.614-.324 1.012v11.043h-.973V15.068c0-.346.048-.662.143-.947.095-.294.238-.545.428-.753.19-.216.424-.381.701-.493.285-.121.614-.182.986-.182a2.6 2.6 0 0 1 .454.039c.147.017.281.048.402.091l-.389.792zm5.645-.791v10.848c0 .381-.048.731-.143 1.051s-.238.597-.428.83c-.19.234-.428.415-.714.545-.277.13-.601.195-.973.195s-.701-.061-.987-.182a1.918 1.918 0 0 1-.7-.48 2.243 2.243 0 0 1-.415-.753 3.106 3.106 0 0 1-.143-.96V12.823h.973v11.173c0 .398.108.735.324 1.012.225.277.545.415.961.415.406 0 .718-.156.934-.467.225-.32.338-.705.338-1.155V12.823h.973zm2.595 11.134c0 .398.112.735.337 1.012s.545.415.961.415c.406 0 .718-.156.934-.467.225-.32.337-.705.337-1.155l.961-.13c0 .381-.048.731-.143 1.051s-.238.597-.428.831c-.19.234-.428.415-.714.545-.277.13-.601.195-.973.195s-.701-.061-.987-.182a1.93 1.93 0 0 1-.701-.48 2.278 2.278 0 0 1-.415-.753 3.106 3.106 0 0 1-.143-.96v-8.694c0-.337.047-.649.143-.934.095-.294.238-.545.428-.753.19-.216.424-.381.701-.493.286-.121.615-.182.987-.182h2.245v3.685h-.974v-2.816h-1.271c-.415 0-.735.138-.961.415-.216.277-.324.614-.324 1.012v8.837zm5.139-10.265H78.76v-.869h1.077v-1.635h.973v1.635h1.778v.869H80.81v10.303c0 .398.108.735.324 1.012.216.268.532.402.948.402h.428v.882h-.428c-.372 0-.701-.061-.986-.182a2.042 2.042 0 0 1-.701-.493 2.243 2.243 0 0 1-.415-.753 3.064 3.064 0 0 1-.143-.947V13.691zm3.984 12.341v-13.21h.973v13.21h-.973zm-.13-17.687c0-.433.207-.649.623-.649.199 0 .355.056.467.169.121.104.182.264.182.48a.606.606 0 0 1-.169.428c-.104.121-.264.182-.48.182-.199 0-.355-.061-.467-.182a.636.636 0 0 1-.156-.428zm7.462 15.325c0 .381-.048.731-.143 1.051s-.238.597-.428.83c-.19.234-.428.415-.714.545-.277.13-.601.195-.973.195s-.701-.061-.986-.182a1.922 1.922 0 0 1-.701-.48 2.243 2.243 0 0 1-.415-.753 3.106 3.106 0 0 1-.143-.96v-8.993c0-.337.047-.649.143-.934.095-.294.238-.545.428-.753.19-.216.424-.381.701-.493.286-.121.615-.182.987-.182h2.245v11.108zm-3.53.325c0 .398.108.735.324 1.012.225.277.545.415.961.415.407 0 .718-.156.934-.467.225-.32.338-.705.338-1.155V13.434h-1.272c-.415 0-.735.138-.961.415-.216.277-.324.614-.324 1.012v9.136zm9.784 2.037h-.973V15.121c0-.398-.113-.735-.337-1.012-.216-.277-.528-.415-.934-.415h-1.285v12.341h-.973v-13.21h2.258c.363 0 .683.061.961.182.285.113.523.277.713.493.19.208.334.459.428.753.095.286.143.597.143.934v10.849z"/><path style="fill:var(--color2, #000)" opacity=".2" d="M30.373 0H0v30.373h30.373V0z"/></symbol><symbol id="icon-company-2" viewBox="0 0 113 32"><path fill="#1c2752" style="fill:var(--color1, #1c2752)" opacity=".4" d="M33.226 10.673a101.327 101.327 0 0 0 3.19.059c.643 0 1.26-.007 1.851-.02a70.13 70.13 0 0 1 1.28-.02c1.707 0 2.98.289 3.82.866.853.578 1.28 1.319 1.28 2.225 0 .46-.151.932-.453 1.418-.302.473-.768.899-1.398 1.28-.617.368-1.411.624-2.383.768v.039c1.287.079 2.311.302 3.072.67.775.354 1.333.781 1.674 1.28s.512 1.017.512 1.556c0 .853-.23 1.562-.689 2.127-.446.564-1.096.991-1.95 1.28-.84.276-1.851.414-3.033.414-.315 0-.775-.007-1.378-.02a51.386 51.386 0 0 0-2.166-.039c-.617 0-1.221.007-1.812.02-.591 0-1.063.013-1.418.039v-.394c.407-.026.709-.079.906-.158a.66.66 0 0 0 .414-.473c.079-.236.118-.591.118-1.063V12.76c0-.486-.039-.84-.118-1.063-.066-.236-.203-.394-.414-.473-.197-.092-.499-.144-.906-.158v-.394zm6.144.394c-.473 0-.781.112-.926.335s-.217.676-.217 1.359v9.767c0 .459.033.807.098 1.044.079.236.21.394.394.473s.459.118.827.118c.84 0 1.451-.295 1.831-.886.394-.604.591-1.457.591-2.56 0-1.011-.249-1.792-.748-2.343-.486-.551-1.3-.827-2.442-.827h-1.556V17.212h1.694c.565 0 .998-.144 1.3-.433.302-.302.512-.696.63-1.182a6.917 6.917 0 0 0 .177-1.595c0-.972-.131-1.7-.394-2.186-.249-.499-.67-.748-1.26-.748zm17.339 3.131v8.271c0 .591.085 1.031.256 1.319.184.276.492.414.926.414v.414a12.794 12.794 0 0 0-1.221-.059c-.604 0-1.168.02-1.694.059a9.906 9.906 0 0 0-1.457.217v-1.595c-.315.591-.748 1.017-1.3 1.28-.538.249-1.155.374-1.851.374-.578 0-1.044-.072-1.398-.217-.341-.144-.604-.335-.788-.571-.21-.236-.361-.551-.453-.945-.092-.407-.138-.939-.138-1.595v-5.002c0-.591-.085-1.024-.256-1.3-.171-.289-.479-.433-.926-.433v-.414c.42.039.827.059 1.221.059.604 0 1.168-.02 1.694-.059a14.395 14.395 0 0 0 1.457-.217v8.31c0 .302.033.558.098.768s.177.374.335.492.368.177.63.177c.302 0 .578-.079.827-.236s.453-.374.61-.65c.158-.289.236-.61.236-.965V16.56c0-.591-.085-1.024-.256-1.3-.171-.289-.479-.433-.926-.433v-.414c.42.039.827.059 1.221.059.604 0 1.168-.02 1.694-.059a14.395 14.395 0 0 0 1.457-.217zm4.652-4.923c.617 0 1.096.138 1.438.414.354.276.531.676.531 1.201s-.177.926-.531 1.201c-.342.276-.821.414-1.438.414s-1.103-.138-1.457-.414c-.341-.276-.512-.676-.512-1.201s.171-.926.512-1.201c.354-.276.84-.414 1.457-.414zm1.733 4.923v8.586c0 .551.085.926.256 1.122.183.197.492.295.926.295v.414c-.263-.013-.65-.026-1.162-.039-.512-.026-1.031-.039-1.556-.039s-1.064.013-1.615.039c-.538.013-.945.026-1.221.039v-.414c.433 0 .735-.098.906-.295.184-.197.276-.571.276-1.122v-6.223c0-.591-.085-1.024-.256-1.3-.171-.289-.479-.433-.926-.433v-.414c.42.039.827.059 1.221.059.591 0 1.149-.02 1.674-.059.538-.053 1.03-.125 1.477-.217zm6.286-4.982v13.568c0 .551.086.926.256 1.122.184.197.492.295.926.295v.414c-.249-.013-.63-.026-1.142-.039a31.063 31.063 0 0 0-1.575-.039c-.525 0-1.063.013-1.615.039-.538.013-.945.026-1.221.039v-.414c.433 0 .735-.098.906-.295.184-.197.276-.571.276-1.122V11.559c0-.578-.085-1.004-.256-1.28-.158-.289-.466-.433-.926-.433v-.414c.42.039.827.059 1.221.059.604 0 1.169-.02 1.694-.059a14.352 14.352 0 0 0 1.457-.217zm11.728 0v13.233c0 .591.085 1.031.256 1.319.183.276.492.414.926.414v.414a12.794 12.794 0 0 0-1.221-.059c-.591 0-1.149.02-1.674.059s-1.018.112-1.477.217V11.58c0-.591-.086-1.024-.256-1.3-.158-.289-.466-.433-.926-.433v-.414c.42.039.827.059 1.221.059.604 0 1.168-.02 1.694-.059.525-.053 1.01-.125 1.457-.217zm-5.297 4.923c.577 0 1.076.085 1.497.256.42.158.768.427 1.044.807l-.236.197a1.537 1.537 0 0 0-.63-.492 1.822 1.822 0 0 0-.748-.158c-.63 0-1.122.394-1.477 1.182-.342.775-.512 1.969-.512 3.584 0 1.129.065 2.022.197 2.678.144.643.335 1.096.571 1.359.249.263.525.394.827.394.407 0 .768-.151 1.083-.453.328-.315.498-.729.512-1.241l.059.827c-.236.604-.565 1.057-.985 1.359-.407.302-.932.453-1.575.453-.762 0-1.451-.19-2.068-.571-.604-.381-1.083-.965-1.438-1.753-.342-.801-.512-1.838-.512-3.111 0-1.195.183-2.179.551-2.954.38-.788.899-1.378 1.556-1.772.67-.394 1.431-.591 2.284-.591zm9.896-4.864c.617 0 1.096.138 1.438.414.354.276.532.676.532 1.201s-.177.926-.532 1.201c-.342.276-.82.414-1.438.414s-1.103-.138-1.457-.414c-.342-.276-.512-.676-.512-1.201s.17-.926.512-1.201c.354-.276.84-.414 1.457-.414zm1.733 4.923v8.586c0 .551.086.926.256 1.122.184.197.492.295.926.295v.414c-.263-.013-.65-.026-1.162-.039-.512-.026-1.031-.039-1.556-.039s-1.063.013-1.615.039c-.538.013-.945.026-1.221.039v-.414c.433 0 .735-.098.906-.295.184-.197.276-.571.276-1.122v-6.223c0-.591-.086-1.024-.256-1.3-.17-.289-.479-.433-.926-.433v-.414c.42.039.827.059 1.221.059.591 0 1.149-.02 1.674-.059a14.28 14.28 0 0 0 1.477-.217zm9.536-.059c.577 0 1.037.072 1.378.217.354.144.623.328.807.551.21.249.361.571.453.965.105.394.158.926.158 1.595v5.317c0 .551.085.926.256 1.122.183.197.492.295.926.295v.414a52.474 52.474 0 0 0-1.182-.039 29.529 29.529 0 0 0-3.053 0c-.499.013-.873.026-1.122.039v-.414c.367 0 .623-.098.768-.295s.217-.571.217-1.122v-6.262c0-.302-.033-.558-.098-.768-.066-.223-.177-.387-.335-.492-.158-.118-.381-.177-.67-.177-.302 0-.585.079-.847.236-.25.158-.453.381-.61.67a2.001 2.001 0 0 0-.217.945v5.849c0 .551.072.926.217 1.122s.4.295.768.295v.414a47.62 47.62 0 0 0-1.083-.039 26.189 26.189 0 0 0-1.438-.039c-.538 0-1.077.013-1.615.039-.538.013-.945.026-1.221.039v-.414c.433 0 .735-.098.906-.295.183-.197.276-.571.276-1.122v-6.223c0-.591-.086-1.024-.256-1.3-.171-.289-.479-.433-.926-.433v-.414c.42.039.827.059 1.221.059.591 0 1.148-.02 1.674-.059.538-.053 1.03-.125 1.477-.217v1.595c.315-.604.742-1.031 1.28-1.28.551-.249 1.182-.374 1.89-.374zm8.394 14.179c-.854 0-1.602-.072-2.245-.217-.644-.131-1.142-.335-1.497-.61-.354-.263-.532-.584-.532-.965 0-.394.183-.755.551-1.083.367-.315.932-.564 1.694-.748l.177.315c-.223.223-.381.44-.473.65a1.7 1.7 0 0 0-.138.65c0 .538.242.952.729 1.241s1.155.433 2.009.433c.591 0 1.103-.085 1.536-.256.433-.158.768-.387 1.004-.689s.354-.656.354-1.063c0-.381-.145-.702-.433-.965-.276-.263-.841-.394-1.694-.394h-1.142c-.565 0-1.05-.072-1.457-.217s-.722-.348-.945-.61c-.21-.263-.315-.591-.315-.985 0-.591.23-1.09.689-1.497.459-.42 1.096-.807 1.91-1.162l.177.158a4.09 4.09 0 0 0-.571.414c-.171.158-.256.368-.256.63 0 .42.249.63.748.63h2.028c.788 0 1.483.092 2.087.276.604.171 1.076.459 1.418.866.354.394.532.912.532 1.556 0 .656-.21 1.26-.63 1.812s-1.07.991-1.95 1.319c-.866.341-1.989.512-3.367.512zm.256-7.897c-.788 0-1.49-.112-2.107-.335-.604-.223-1.083-.564-1.438-1.024-.354-.473-.532-1.07-.532-1.792s.177-1.313.532-1.772c.354-.46.833-.801 1.438-1.024.617-.223 1.319-.335 2.107-.335.774 0 1.47.112 2.087.335s1.103.565 1.457 1.024.532 1.05.532 1.772-.177 1.319-.532 1.792c-.354.459-.841.801-1.457 1.024s-1.313.335-2.087.335zm0-.354c.289 0 .518-.203.689-.61.183-.407.276-1.136.276-2.186s-.092-1.772-.276-2.166c-.171-.407-.401-.61-.689-.61-.302 0-.538.204-.709.61-.171.394-.256 1.116-.256 2.166s.085 1.779.256 2.186c.17.407.407.61.709.61zm3.132-4.215-.414-.138c.21-.538.532-.972.965-1.3a2.35 2.35 0 0 1 1.457-.512c.433 0 .754.118.965.354.223.236.335.545.335.926s-.105.676-.315.886a.966.966 0 0 1-.709.295 1.02 1.02 0 0 1-.65-.236c-.197-.171-.309-.42-.335-.748-.026-.341.092-.768.354-1.28l.118.118c-.486.171-.86.381-1.122.63-.25.249-.466.584-.65 1.004z"/><path style="fill:var(--color2, #000)" opacity=".2" d="M0 0v32h32V0H0z"/></symbol><symbol id="icon-company-1" viewBox="0 0 101 32"><path fill="#1c2752" style="fill:var(--color1, #1c2752)" opacity=".4" d="M37.899 25.192V7.432h8.187c1.948 0 3.451.411 4.509 1.234s1.587 1.948 1.587 3.376c0 1.058-.319 1.957-.957 2.696-.621.739-1.478 1.234-2.57 1.486v-.403c1.276.218 2.259.705 2.947 1.461.705.739 1.058 1.705 1.058 2.897 0 1.579-.563 2.813-1.688 3.703-1.108.873-2.645 1.31-4.61 1.31h-8.464zm3.753-2.923h4.232c.974 0 1.721-.185 2.242-.554s.781-.957.781-1.763c0-.823-.26-1.411-.781-1.763-.521-.369-1.268-.554-2.242-.554h-4.232v4.635zm0-7.532h3.728c1.024 0 1.78-.185 2.267-.554s.731-.924.731-1.663c0-.722-.244-1.268-.731-1.637s-1.243-.554-2.267-.554h-3.728v4.409zm13.51 10.455v-9.396c0-.554-.017-1.117-.05-1.688a18.69 18.69 0 0 0-.126-1.688h3.653l.428 3.728h-.579c.168-.907.437-1.654.806-2.242.386-.588.856-1.024 1.411-1.31.571-.285 1.218-.428 1.94-.428.319 0 .571.017.756.05.185.017.37.059.554.126l-.025 3.35c-.353-.151-.655-.244-.907-.277a4.48 4.48 0 0 0-.907-.076c-.705 0-1.293.134-1.763.403a2.555 2.555 0 0 0-1.033 1.184c-.218.521-.328 1.15-.328 1.889v6.373h-3.829zm10.383 0V12.42h3.804v12.772h-3.804zm-.152-14.863V6.777h4.081v3.552h-4.081zm12.078 15.14c-1.108 0-2.091-.269-2.947-.806-.84-.537-1.503-1.302-1.99-2.292-.47-.991-.705-2.183-.705-3.577 0-1.377.235-2.561.705-3.552s1.134-1.747 1.99-2.267c.856-.537 1.839-.806 2.947-.806 1.008 0 1.906.244 2.695.731.806.47 1.343 1.108 1.612 1.915h-.328V6.653h3.804v18.541H81.5V22.7h.328c-.269.84-.806 1.512-1.612 2.015s-1.721.756-2.746.756zm1.133-2.872c.874 0 1.579-.311 2.116-.932s.806-1.579.806-2.872-.269-2.242-.806-2.847-1.243-.907-2.116-.907c-.874 0-1.587.302-2.141.907-.537.605-.806 1.553-.806 2.847s.269 2.25.806 2.872c.554.621 1.268.932 2.141.932zm16.194 2.872c-2.217 0-3.947-.596-5.189-1.789s-1.864-2.813-1.864-4.862c0-1.327.26-2.486.781-3.476a5.898 5.898 0 0 1 2.217-2.318c.957-.571 2.074-.857 3.35-.857 1.26 0 2.309.269 3.149.806.856.537 1.494 1.293 1.915 2.267.436.957.655 2.074.655 3.35v.882h-8.943v-1.889h6.172l-.428.353c0-1.058-.219-1.856-.655-2.393-.42-.554-1.033-.831-1.839-.831-.89 0-1.579.328-2.066.982-.47.655-.705 1.595-.705 2.821v.403c0 1.243.302 2.166.907 2.771.622.605 1.511.907 2.67.907.688 0 1.335-.084 1.94-.252a6.098 6.098 0 0 0 1.763-.857l1.058 2.519a7.18 7.18 0 0 1-2.217 1.083 9.078 9.078 0 0 1-2.67.378z"/><path style="fill:var(--color2, #000)" opacity=".2" d="M31.319.681H0V32h31.319V.681z"/></symbol><symbol id="icon-company-4" viewBox="0 0 121 32"><path fill="#1c2752" style="fill:var(--color1, #1c2752)" opacity=".4" d="M43.961 21.726c-.233.151-.569.336-1.008.555a8.15 8.15 0 0 1-1.522.535 6.933 6.933 0 0 1-1.893.206c-1.166-.014-2.208-.219-3.127-.617s-1.707-.939-2.366-1.625a7.413 7.413 0 0 1-1.481-2.386 8.057 8.057 0 0 1-.514-2.88c0-1.125.178-2.153.535-3.086a7.371 7.371 0 0 1 1.543-2.448 6.911 6.911 0 0 1 2.325-1.625c.905-.384 1.893-.576 2.962-.576.905 0 1.728.123 2.469.37s1.365.528 1.872.843l-.864 2.016a8.216 8.216 0 0 0-1.481-.782c-.576-.247-1.221-.37-1.934-.37a4.82 4.82 0 0 0-2.592.741 5.632 5.632 0 0 0-1.893 1.995c-.466.837-.699 1.776-.699 2.818 0 1.056.213 2.002.638 2.839.439.837 1.056 1.495 1.851 1.975s1.728.72 2.798.72c.768 0 1.44-.117 2.016-.35.59-.233 1.07-.501 1.44-.802l.926 1.934zm7.948 1.337a4.3 4.3 0 0 1-1.831-.411 3.44 3.44 0 0 1-1.358-1.173l.123-.638v6.151h-2.078V14.114h1.79l.288 2.119-.206-.597a4.722 4.722 0 0 1 1.543-1.234c.631-.329 1.337-.494 2.119-.494.809 0 1.536.192 2.181.576s1.152.926 1.522 1.625c.37.686.555 1.495.555 2.427s-.206 1.742-.617 2.427a4.103 4.103 0 0 1-1.646 1.563c-.699.357-1.495.535-2.386.535zm-.412-1.646c.535 0 1.022-.123 1.461-.37a2.806 2.806 0 0 0 1.07-1.008 2.74 2.74 0 0 0 .411-1.481c0-.562-.123-1.063-.37-1.502s-.583-.782-1.008-1.029a2.772 2.772 0 0 0-1.419-.37c-.713 0-1.317.192-1.81.576-.48.384-.809.891-.987 1.522v1.543c.11.617.411 1.125.905 1.522s1.077.597 1.749.597zm9.436-7.159.185 1.872-.103-.165a3.56 3.56 0 0 1 1.337-1.502c.59-.37 1.262-.555 2.016-.555.713 0 1.31.165 1.79.494s.775.795.885 1.399l-.103.082a3.767 3.767 0 0 1 1.378-1.44 3.383 3.383 0 0 1 1.81-.535c.85 0 1.522.24 2.016.72.494.466.747 1.083.761 1.851v6.377h-2.057v-5.595c-.014-.439-.117-.802-.309-1.09-.178-.288-.507-.446-.987-.473-.494 0-.933.151-1.317.453-.37.302-.665.693-.885 1.173-.206.48-.315.994-.329 1.543v3.991h-2.078v-5.595c-.014-.439-.123-.802-.329-1.09-.192-.288-.528-.446-1.008-.473-.48 0-.912.151-1.296.453a2.99 2.99 0 0 0-.864 1.193 3.87 3.87 0 0 0-.309 1.543v3.97h-2.078V14.26h1.872zm20.366 8.805a4.3 4.3 0 0 1-1.831-.411 3.44 3.44 0 0 1-1.358-1.173l.123-.638v6.151h-2.078V14.114h1.79l.288 2.119-.206-.597a4.722 4.722 0 0 1 1.543-1.234c.631-.329 1.337-.494 2.119-.494.809 0 1.536.192 2.181.576s1.152.926 1.522 1.625c.37.686.555 1.495.555 2.427s-.206 1.742-.617 2.427a4.103 4.103 0 0 1-1.646 1.563c-.699.357-1.495.535-2.386.535zm-.411-1.646c.535 0 1.022-.123 1.461-.37a2.806 2.806 0 0 0 1.07-1.008 2.74 2.74 0 0 0 .411-1.481c0-.562-.123-1.063-.37-1.502s-.583-.782-1.008-1.029a2.772 2.772 0 0 0-1.419-.37c-.713 0-1.317.192-1.81.576-.48.384-.809.891-.987 1.522v1.543c.11.617.411 1.125.905 1.522s1.077.597 1.749.597zm11.163 1.646c-.809 0-1.543-.171-2.201-.514s-1.179-.843-1.563-1.502c-.384-.672-.576-1.502-.576-2.489 0-.96.199-1.783.597-2.469.411-.699.946-1.234 1.605-1.605a4.322 4.322 0 0 1 2.181-.576c.823 0 1.502.171 2.037.514s.946.754 1.234 1.234l-.123.329.206-1.728h1.913v8.599h-2.078v-2.181l.206.514c-.055.11-.171.267-.35.473s-.411.418-.699.638a4.414 4.414 0 0 1-1.049.535 3.742 3.742 0 0 1-1.337.226zm.555-1.708c.686 0 1.262-.178 1.728-.535.48-.37.795-.871.946-1.502v-1.769c-.165-.562-.501-1.029-1.008-1.399-.494-.37-1.07-.555-1.728-.555a2.59 2.59 0 0 0-1.358.37 2.58 2.58 0 0 0-.987 1.008c-.247.425-.37.919-.37 1.481 0 .549.123 1.042.37 1.481.261.439.603.789 1.029 1.049.425.247.885.37 1.378.37zm9.871-7.097.185 1.995-.082-.288a3.264 3.264 0 0 1 1.317-1.481c.617-.37 1.337-.555 2.16-.555.809 0 1.474.24 1.995.72.521.466.789 1.083.802 1.851v6.357h-2.078V17.22c-.014-.439-.144-.795-.391-1.07-.247-.288-.631-.439-1.152-.453-.727 0-1.337.302-1.831.905-.48.603-.72 1.378-.72 2.325v3.929h-2.078v-8.599h1.872zm10.078 12.734 5.657-12.734h1.913l-5.554 12.734h-2.016zm2.14-4.073-4.135-8.661h2.325l3.435 7.611-1.625 1.049z"/><path style="fill:var(--color2, #000)" opacity=".2" d="M28.571 3.429H0V32h28.571V3.429z"/></symbol></defs></svg>