<svg aria-hidden="true" style="position: absolute; width: 0; height: 0; overflow: hidden;" version="1.1" xmlns="http://www.w3.org/2000/svg" xmlns:xlink="http://www.w3.org/1999/xlink">
<defs>
<symbol id="icon-company-3" viewBox="0 0 99 32">
<path fill="#1c2752" style="fill: var(--color1, #1c2752)" opacity="0.4" d="M39.311 13.174v-4.36h-1.129c-0.467 0-0.869 0.039-1.207 0.117-0.337 0.069-0.614 0.199-0.831 0.389-0.216 0.182-0.376 0.433-0.48 0.753s-0.156 0.722-0.156 1.207v11.601c0 0.363 0.035 0.701 0.104 1.012 0.078 0.303 0.195 0.571 0.35 0.805 0.164 0.225 0.372 0.402 0.623 0.532 0.26 0.13 0.571 0.195 0.934 0.195 0.597 0 1.042-0.173 1.337-0.519 0.303-0.346 0.454-0.843 0.454-1.492v-2.349h0.973v2.362c0 0.891-0.229 1.592-0.688 2.102s-1.142 0.766-2.050 0.766c-0.545 0-1.012-0.091-1.401-0.273-0.381-0.182-0.692-0.424-0.934-0.727-0.234-0.311-0.407-0.675-0.519-1.090-0.104-0.415-0.156-0.856-0.156-1.324v-11.16c0-0.286 0.004-0.575 0.013-0.869 0.009-0.303 0.043-0.593 0.104-0.869 0.069-0.286 0.169-0.549 0.298-0.792 0.138-0.251 0.329-0.467 0.571-0.649 0.251-0.182 0.567-0.324 0.947-0.428 0.389-0.113 0.861-0.169 1.414-0.169h2.401v5.23h-0.973zM46.15 23.672c0 0.381-0.048 0.731-0.143 1.051s-0.238 0.597-0.428 0.83c-0.19 0.234-0.428 0.415-0.714 0.545-0.277 0.13-0.601 0.195-0.973 0.195s-0.701-0.061-0.986-0.182c-0.277-0.113-0.51-0.273-0.701-0.48-0.182-0.216-0.32-0.467-0.415-0.753-0.095-0.294-0.143-0.614-0.143-0.96v-8.993c0-0.337 0.048-0.649 0.143-0.934 0.095-0.294 0.238-0.545 0.428-0.753 0.19-0.216 0.424-0.381 0.701-0.493 0.285-0.121 0.614-0.182 0.986-0.182h2.245v11.108zM42.62 23.997c0 0.398 0.108 0.735 0.324 1.012 0.225 0.277 0.545 0.415 0.96 0.415 0.407 0 0.718-0.156 0.934-0.467 0.225-0.32 0.337-0.705 0.337-1.155v-10.368h-1.272c-0.415 0-0.735 0.138-0.96 0.415-0.216 0.277-0.324 0.614-0.324 1.012v9.136zM52.404 26.034h-0.973v-10.913c0-0.398-0.112-0.735-0.337-1.012-0.216-0.277-0.528-0.415-0.934-0.415h-1.285v12.341h-0.973v-13.21h2.258c0.363 0 0.683 0.061 0.96 0.182 0.285 0.113 0.523 0.277 0.714 0.493 0.19 0.208 0.333 0.459 0.428 0.753 0.095 0.286 0.143 0.597 0.143 0.934v10.849zM53.767 23.036h0.973v0.973c0 0.398 0.108 0.735 0.324 1.012 0.225 0.268 0.545 0.402 0.961 0.402 0.407 0 0.718-0.134 0.934-0.402 0.225-0.277 0.337-0.614 0.337-1.012v-1.635c0-0.285-0.048-0.549-0.143-0.792-0.086-0.251-0.207-0.489-0.363-0.714-0.148-0.234-0.321-0.454-0.52-0.662-0.19-0.208-0.385-0.415-0.584-0.623-0.242-0.242-0.48-0.489-0.714-0.74-0.225-0.251-0.428-0.515-0.61-0.792-0.181-0.285-0.328-0.584-0.441-0.895-0.104-0.311-0.156-0.649-0.156-1.012v-1.207c0-0.346 0.048-0.662 0.143-0.947 0.095-0.294 0.238-0.545 0.428-0.753 0.19-0.216 0.424-0.381 0.701-0.493 0.285-0.121 0.614-0.182 0.986-0.182 0.363 0 0.683 0.061 0.96 0.182 0.286 0.113 0.523 0.277 0.714 0.493 0.19 0.208 0.333 0.459 0.428 0.753 0.095 0.285 0.143 0.601 0.143 0.947v1.064h-0.973v-1.142c0-0.398-0.113-0.735-0.337-1.012-0.216-0.277-0.528-0.415-0.934-0.415-0.415 0-0.735 0.138-0.961 0.415-0.216 0.277-0.324 0.614-0.324 1.012v1.285c0 0.294 0.048 0.571 0.143 0.83 0.095 0.251 0.216 0.489 0.363 0.714 0.156 0.225 0.329 0.446 0.519 0.662 0.199 0.208 0.398 0.415 0.597 0.623 0.242 0.251 0.476 0.502 0.701 0.753 0.234 0.251 0.437 0.515 0.61 0.792 0.182 0.277 0.325 0.571 0.428 0.882 0.112 0.303 0.169 0.627 0.169 0.973v1.544c0 0.337-0.048 0.653-0.143 0.947-0.095 0.285-0.238 0.536-0.428 0.753-0.19 0.208-0.428 0.372-0.714 0.493-0.277 0.121-0.597 0.182-0.96 0.182-0.372 0-0.701-0.061-0.986-0.182-0.277-0.121-0.511-0.285-0.701-0.493-0.191-0.216-0.333-0.467-0.428-0.753-0.095-0.294-0.143-0.61-0.143-0.947v-0.882zM59.879 13.693h-1.077v-0.869h1.077v-1.635h0.973v1.635h1.778v0.869h-1.778v10.303c0 0.398 0.108 0.735 0.324 1.012 0.216 0.268 0.532 0.402 0.948 0.402h0.428v0.882h-0.428c-0.372 0-0.701-0.061-0.986-0.182-0.277-0.121-0.51-0.285-0.701-0.493-0.182-0.216-0.321-0.467-0.415-0.753-0.095-0.294-0.143-0.61-0.143-0.947v-10.226zM66.458 13.615c-0.13-0.035-0.285-0.052-0.467-0.052-0.415 0-0.735 0.138-0.961 0.415-0.216 0.277-0.324 0.614-0.324 1.012v11.043h-0.973v-10.965c0-0.346 0.048-0.662 0.143-0.947 0.095-0.294 0.238-0.545 0.428-0.753 0.19-0.216 0.424-0.381 0.701-0.493 0.285-0.121 0.614-0.182 0.986-0.182 0.156 0 0.307 0.013 0.454 0.039 0.147 0.017 0.281 0.048 0.402 0.091l-0.389 0.792zM72.103 12.824v10.848c0 0.381-0.048 0.731-0.143 1.051s-0.238 0.597-0.428 0.83c-0.19 0.234-0.428 0.415-0.714 0.545-0.277 0.13-0.601 0.195-0.973 0.195s-0.701-0.061-0.987-0.182c-0.277-0.113-0.51-0.273-0.7-0.48-0.182-0.216-0.321-0.467-0.415-0.753-0.095-0.294-0.143-0.614-0.143-0.96v-11.095h0.973v11.173c0 0.398 0.108 0.735 0.324 1.012 0.225 0.277 0.545 0.415 0.961 0.415 0.406 0 0.718-0.156 0.934-0.467 0.225-0.32 0.338-0.705 0.338-1.155v-10.978h0.973zM74.698 23.958c0 0.398 0.112 0.735 0.337 1.012s0.545 0.415 0.961 0.415c0.406 0 0.718-0.156 0.934-0.467 0.225-0.32 0.337-0.705 0.337-1.155l0.961-0.13c0 0.381-0.048 0.731-0.143 1.051s-0.238 0.597-0.428 0.831c-0.19 0.234-0.428 0.415-0.714 0.545-0.277 0.13-0.601 0.195-0.973 0.195s-0.701-0.061-0.987-0.182c-0.277-0.113-0.51-0.273-0.701-0.48-0.181-0.216-0.32-0.467-0.415-0.753-0.095-0.294-0.143-0.614-0.143-0.96v-8.694c0-0.337 0.047-0.649 0.143-0.934 0.095-0.294 0.238-0.545 0.428-0.753 0.19-0.216 0.424-0.381 0.701-0.493 0.286-0.121 0.615-0.182 0.987-0.182h2.245v3.685h-0.974v-2.816h-1.271c-0.415 0-0.735 0.138-0.961 0.415-0.216 0.277-0.324 0.614-0.324 1.012v8.837zM79.837 13.693h-1.077v-0.869h1.077v-1.635h0.973v1.635h1.778v0.869h-1.778v10.303c0 0.398 0.108 0.735 0.324 1.012 0.216 0.268 0.532 0.402 0.948 0.402h0.428v0.882h-0.428c-0.372 0-0.701-0.061-0.986-0.182-0.277-0.121-0.511-0.285-0.701-0.493-0.182-0.216-0.321-0.467-0.415-0.753-0.095-0.294-0.143-0.61-0.143-0.947v-10.226zM83.821 26.034v-13.21h0.973v13.21h-0.973zM83.691 8.347c0-0.433 0.207-0.649 0.623-0.649 0.199 0 0.355 0.056 0.467 0.169 0.121 0.104 0.182 0.264 0.182 0.48 0 0.164-0.056 0.307-0.169 0.428-0.104 0.121-0.264 0.182-0.48 0.182-0.199 0-0.355-0.061-0.467-0.182-0.104-0.121-0.156-0.264-0.156-0.428zM91.153 23.672c0 0.381-0.048 0.731-0.143 1.051s-0.238 0.597-0.428 0.83c-0.19 0.234-0.428 0.415-0.714 0.545-0.277 0.13-0.601 0.195-0.973 0.195s-0.701-0.061-0.986-0.182c-0.277-0.113-0.511-0.273-0.701-0.48-0.182-0.216-0.321-0.467-0.415-0.753-0.095-0.294-0.143-0.614-0.143-0.96v-8.993c0-0.337 0.047-0.649 0.143-0.934 0.095-0.294 0.238-0.545 0.428-0.753 0.19-0.216 0.424-0.381 0.701-0.493 0.286-0.121 0.615-0.182 0.987-0.182h2.245v11.108zM87.623 23.997c0 0.398 0.108 0.735 0.324 1.012 0.225 0.277 0.545 0.415 0.961 0.415 0.407 0 0.718-0.156 0.934-0.467 0.225-0.32 0.338-0.705 0.338-1.155v-10.368h-1.272c-0.415 0-0.735 0.138-0.961 0.415-0.216 0.277-0.324 0.614-0.324 1.012v9.136zM97.407 26.034h-0.973v-10.913c0-0.398-0.113-0.735-0.337-1.012-0.216-0.277-0.528-0.415-0.934-0.415h-1.285v12.341h-0.973v-13.21h2.258c0.363 0 0.683 0.061 0.961 0.182 0.285 0.113 0.523 0.277 0.713 0.493 0.19 0.208 0.334 0.459 0.428 0.753 0.095 0.286 0.143 0.597 0.143 0.934v10.849z"></path>
<path fill="#000" style="fill: var(--color2, #000)" opacity="0.2" d="M30.373 0h-30.373v30.373h30.373v-30.373z"></path>
</symbol>
<symbol id="icon-company-2" viewBox="0 0 113 32">
<path fill="#1c2752" style="fill: var(--color1, #1c2752)" opacity="0.4" d="M33.226 10.673c0.354 0.013 0.827 0.026 1.418 0.039s1.182 0.020 1.772 0.020c0.643 0 1.26-0.007 1.851-0.020 0.604-0.013 1.031-0.020 1.28-0.020 1.707 0 2.98 0.289 3.82 0.866 0.853 0.578 1.28 1.319 1.28 2.225 0 0.46-0.151 0.932-0.453 1.418-0.302 0.473-0.768 0.899-1.398 1.28-0.617 0.368-1.411 0.624-2.383 0.768v0.039c1.287 0.079 2.311 0.302 3.072 0.67 0.775 0.354 1.333 0.781 1.674 1.28s0.512 1.017 0.512 1.556c0 0.853-0.23 1.562-0.689 2.127-0.446 0.564-1.096 0.991-1.95 1.28-0.84 0.276-1.851 0.414-3.033 0.414-0.315 0-0.775-0.007-1.378-0.020-0.604-0.026-1.326-0.039-2.166-0.039-0.617 0-1.221 0.007-1.812 0.020-0.591 0-1.063 0.013-1.418 0.039v-0.394c0.407-0.026 0.709-0.079 0.906-0.158 0.21-0.079 0.348-0.236 0.414-0.473 0.079-0.236 0.118-0.591 0.118-1.063v-9.767c0-0.486-0.039-0.84-0.118-1.063-0.066-0.236-0.203-0.394-0.414-0.473-0.197-0.092-0.499-0.144-0.906-0.158v-0.394zM39.37 11.067c-0.473 0-0.781 0.112-0.926 0.335s-0.217 0.676-0.217 1.359v9.767c0 0.459 0.033 0.807 0.098 1.044 0.079 0.236 0.21 0.394 0.394 0.473s0.459 0.118 0.827 0.118c0.84 0 1.451-0.295 1.831-0.886 0.394-0.604 0.591-1.457 0.591-2.56 0-1.011-0.249-1.792-0.748-2.343-0.486-0.551-1.3-0.827-2.442-0.827h-1.556c0 0 0-0.052 0-0.158 0-0.118 0-0.177 0-0.177h1.694c0.565 0 0.998-0.144 1.3-0.433 0.302-0.302 0.512-0.696 0.63-1.182 0.118-0.499 0.177-1.031 0.177-1.595 0-0.972-0.131-1.7-0.394-2.186-0.249-0.499-0.67-0.748-1.26-0.748zM56.709 14.198v8.271c0 0.591 0.085 1.031 0.256 1.319 0.184 0.276 0.492 0.414 0.926 0.414v0.414c-0.407-0.039-0.814-0.059-1.221-0.059-0.604 0-1.168 0.020-1.694 0.059-0.512 0.039-0.998 0.112-1.457 0.217v-1.595c-0.315 0.591-0.748 1.017-1.3 1.28-0.538 0.249-1.155 0.374-1.851 0.374-0.578 0-1.044-0.072-1.398-0.217-0.341-0.144-0.604-0.335-0.788-0.571-0.21-0.236-0.361-0.551-0.453-0.945-0.092-0.407-0.138-0.939-0.138-1.595v-5.002c0-0.591-0.085-1.024-0.256-1.3-0.171-0.289-0.479-0.433-0.926-0.433v-0.414c0.42 0.039 0.827 0.059 1.221 0.059 0.604 0 1.168-0.020 1.694-0.059 0.525-0.053 1.011-0.125 1.457-0.217v8.31c0 0.302 0.033 0.558 0.098 0.768s0.177 0.374 0.335 0.492 0.368 0.177 0.63 0.177c0.302 0 0.578-0.079 0.827-0.236s0.453-0.374 0.61-0.65c0.158-0.289 0.236-0.61 0.236-0.965v-5.534c0-0.591-0.085-1.024-0.256-1.3-0.171-0.289-0.479-0.433-0.926-0.433v-0.414c0.42 0.039 0.827 0.059 1.221 0.059 0.604 0 1.168-0.020 1.694-0.059 0.525-0.053 1.011-0.125 1.457-0.217zM61.361 9.275c0.617 0 1.096 0.138 1.438 0.414 0.354 0.276 0.531 0.676 0.531 1.201s-0.177 0.926-0.531 1.201c-0.342 0.276-0.821 0.414-1.438 0.414s-1.103-0.138-1.457-0.414c-0.341-0.276-0.512-0.676-0.512-1.201s0.171-0.926 0.512-1.201c0.354-0.276 0.84-0.414 1.457-0.414zM63.094 14.198v8.586c0 0.551 0.085 0.926 0.256 1.122 0.183 0.197 0.492 0.295 0.926 0.295v0.414c-0.263-0.013-0.65-0.026-1.162-0.039-0.512-0.026-1.031-0.039-1.556-0.039s-1.064 0.013-1.615 0.039c-0.538 0.013-0.945 0.026-1.221 0.039v-0.414c0.433 0 0.735-0.098 0.906-0.295 0.184-0.197 0.276-0.571 0.276-1.122v-6.223c0-0.591-0.085-1.024-0.256-1.3-0.171-0.289-0.479-0.433-0.926-0.433v-0.414c0.42 0.039 0.827 0.059 1.221 0.059 0.591 0 1.149-0.020 1.674-0.059 0.538-0.053 1.030-0.125 1.477-0.217zM69.38 9.216v13.568c0 0.551 0.086 0.926 0.256 1.122 0.184 0.197 0.492 0.295 0.926 0.295v0.414c-0.249-0.013-0.63-0.026-1.142-0.039-0.512-0.026-1.037-0.039-1.575-0.039-0.525 0-1.063 0.013-1.615 0.039-0.538 0.013-0.945 0.026-1.221 0.039v-0.414c0.433 0 0.735-0.098 0.906-0.295 0.184-0.197 0.276-0.571 0.276-1.122v-11.225c0-0.578-0.085-1.004-0.256-1.28-0.158-0.289-0.466-0.433-0.926-0.433v-0.414c0.42 0.039 0.827 0.059 1.221 0.059 0.604 0 1.169-0.020 1.694-0.059 0.526-0.053 1.011-0.125 1.457-0.217zM81.108 9.216v13.233c0 0.591 0.085 1.031 0.256 1.319 0.183 0.276 0.492 0.414 0.926 0.414v0.414c-0.407-0.039-0.814-0.059-1.221-0.059-0.591 0-1.149 0.020-1.674 0.059s-1.018 0.112-1.477 0.217v-13.233c0-0.591-0.086-1.024-0.256-1.3-0.158-0.289-0.466-0.433-0.926-0.433v-0.414c0.42 0.039 0.827 0.059 1.221 0.059 0.604 0 1.168-0.020 1.694-0.059 0.525-0.053 1.010-0.125 1.457-0.217zM75.811 14.139c0.577 0 1.076 0.085 1.497 0.256 0.42 0.158 0.768 0.427 1.044 0.807l-0.236 0.197c-0.171-0.223-0.381-0.387-0.63-0.492-0.236-0.105-0.486-0.158-0.748-0.158-0.63 0-1.122 0.394-1.477 1.182-0.342 0.775-0.512 1.969-0.512 3.584 0 1.129 0.065 2.022 0.197 2.678 0.144 0.643 0.335 1.096 0.571 1.359 0.249 0.263 0.525 0.394 0.827 0.394 0.407 0 0.768-0.151 1.083-0.453 0.328-0.315 0.498-0.729 0.512-1.241l0.059 0.827c-0.236 0.604-0.565 1.057-0.985 1.359-0.407 0.302-0.932 0.453-1.575 0.453-0.762 0-1.451-0.19-2.068-0.571-0.604-0.381-1.083-0.965-1.438-1.753-0.342-0.801-0.512-1.838-0.512-3.111 0-1.195 0.183-2.179 0.551-2.954 0.38-0.788 0.899-1.378 1.556-1.772 0.67-0.394 1.431-0.591 2.284-0.591zM85.707 9.275c0.617 0 1.096 0.138 1.438 0.414 0.354 0.276 0.532 0.676 0.532 1.201s-0.177 0.926-0.532 1.201c-0.342 0.276-0.82 0.414-1.438 0.414s-1.103-0.138-1.457-0.414c-0.342-0.276-0.512-0.676-0.512-1.201s0.17-0.926 0.512-1.201c0.354-0.276 0.84-0.414 1.457-0.414zM87.44 14.198v8.586c0 0.551 0.086 0.926 0.256 1.122 0.184 0.197 0.492 0.295 0.926 0.295v0.414c-0.263-0.013-0.65-0.026-1.162-0.039-0.512-0.026-1.031-0.039-1.556-0.039s-1.063 0.013-1.615 0.039c-0.538 0.013-0.945 0.026-1.221 0.039v-0.414c0.433 0 0.735-0.098 0.906-0.295 0.184-0.197 0.276-0.571 0.276-1.122v-6.223c0-0.591-0.086-1.024-0.256-1.3-0.17-0.289-0.479-0.433-0.926-0.433v-0.414c0.42 0.039 0.827 0.059 1.221 0.059 0.591 0 1.149-0.020 1.674-0.059 0.538-0.053 1.031-0.125 1.477-0.217zM96.976 14.139c0.577 0 1.037 0.072 1.378 0.217 0.354 0.144 0.623 0.328 0.807 0.551 0.21 0.249 0.361 0.571 0.453 0.965 0.105 0.394 0.158 0.926 0.158 1.595v5.317c0 0.551 0.085 0.926 0.256 1.122 0.183 0.197 0.492 0.295 0.926 0.295v0.414c-0.263-0.013-0.657-0.026-1.182-0.039-0.512-0.026-1.011-0.039-1.497-0.039-0.538 0-1.057 0.013-1.556 0.039-0.499 0.013-0.873 0.026-1.122 0.039v-0.414c0.367 0 0.623-0.098 0.768-0.295s0.217-0.571 0.217-1.122v-6.262c0-0.302-0.033-0.558-0.098-0.768-0.066-0.223-0.177-0.387-0.335-0.492-0.158-0.118-0.381-0.177-0.67-0.177-0.302 0-0.585 0.079-0.847 0.236-0.25 0.158-0.453 0.381-0.61 0.67-0.145 0.276-0.217 0.591-0.217 0.945v5.849c0 0.551 0.072 0.926 0.217 1.122s0.4 0.295 0.768 0.295v0.414c-0.25-0.013-0.61-0.026-1.083-0.039-0.473-0.026-0.952-0.039-1.438-0.039-0.538 0-1.077 0.013-1.615 0.039-0.538 0.013-0.945 0.026-1.221 0.039v-0.414c0.433 0 0.735-0.098 0.906-0.295 0.183-0.197 0.276-0.571 0.276-1.122v-6.223c0-0.591-0.086-1.024-0.256-1.3-0.171-0.289-0.479-0.433-0.926-0.433v-0.414c0.42 0.039 0.827 0.059 1.221 0.059 0.591 0 1.148-0.020 1.674-0.059 0.538-0.053 1.030-0.125 1.477-0.217v1.595c0.315-0.604 0.742-1.031 1.28-1.28 0.551-0.249 1.182-0.374 1.89-0.374zM105.37 28.318c-0.854 0-1.602-0.072-2.245-0.217-0.644-0.131-1.142-0.335-1.497-0.61-0.354-0.263-0.532-0.584-0.532-0.965 0-0.394 0.183-0.755 0.551-1.083 0.367-0.315 0.932-0.564 1.694-0.748l0.177 0.315c-0.223 0.223-0.381 0.44-0.473 0.65-0.092 0.223-0.138 0.44-0.138 0.65 0 0.538 0.242 0.952 0.729 1.241s1.155 0.433 2.009 0.433c0.591 0 1.103-0.085 1.536-0.256 0.433-0.158 0.768-0.387 1.004-0.689s0.354-0.656 0.354-1.063c0-0.381-0.145-0.702-0.433-0.965-0.276-0.263-0.841-0.394-1.694-0.394h-1.142c-0.565 0-1.050-0.072-1.457-0.217s-0.722-0.348-0.945-0.61c-0.21-0.263-0.315-0.591-0.315-0.985 0-0.591 0.23-1.090 0.689-1.497 0.459-0.42 1.096-0.807 1.91-1.162l0.177 0.158c-0.197 0.118-0.388 0.256-0.571 0.414-0.171 0.158-0.256 0.368-0.256 0.63 0 0.42 0.249 0.63 0.748 0.63h2.028c0.788 0 1.483 0.092 2.087 0.276 0.604 0.171 1.076 0.459 1.418 0.866 0.354 0.394 0.532 0.912 0.532 1.556 0 0.656-0.21 1.26-0.63 1.812s-1.070 0.991-1.95 1.319c-0.866 0.341-1.989 0.512-3.367 0.512zM105.626 20.421c-0.788 0-1.49-0.112-2.107-0.335-0.604-0.223-1.083-0.564-1.438-1.024-0.354-0.473-0.532-1.070-0.532-1.792s0.177-1.313 0.532-1.772c0.354-0.46 0.833-0.801 1.438-1.024 0.617-0.223 1.319-0.335 2.107-0.335 0.774 0 1.47 0.112 2.087 0.335s1.103 0.565 1.457 1.024 0.532 1.050 0.532 1.772c0 0.722-0.177 1.319-0.532 1.792-0.354 0.459-0.841 0.801-1.457 1.024s-1.313 0.335-2.087 0.335zM105.626 20.067c0.289 0 0.518-0.203 0.689-0.61 0.183-0.407 0.276-1.136 0.276-2.186s-0.092-1.772-0.276-2.166c-0.171-0.407-0.401-0.61-0.689-0.61-0.302 0-0.538 0.204-0.709 0.61-0.171 0.394-0.256 1.116-0.256 2.166s0.085 1.779 0.256 2.186c0.17 0.407 0.407 0.61 0.709 0.61zM108.758 15.852l-0.414-0.138c0.21-0.538 0.532-0.972 0.965-1.3 0.446-0.341 0.932-0.512 1.457-0.512 0.433 0 0.754 0.118 0.965 0.354 0.223 0.236 0.335 0.545 0.335 0.926s-0.105 0.676-0.315 0.886c-0.197 0.197-0.433 0.295-0.709 0.295-0.236 0-0.453-0.079-0.65-0.236-0.197-0.171-0.309-0.42-0.335-0.748-0.026-0.341 0.092-0.768 0.354-1.28l0.118 0.118c-0.486 0.171-0.86 0.381-1.122 0.63-0.25 0.249-0.466 0.584-0.65 1.004z"></path>
<path fill="#000" style="fill: var(--color2, #000)" opacity="0.2" d="M0 0v32h32v-32h-32z"></path>
</symbol>
<symbol id="icon-company-1" viewBox="0 0 101 32">
<path fill="#1c2752" style="fill: var(--color1, #1c2752)" opacity="0.4" d="M37.899 25.192v-17.76h8.187c1.948 0 3.451 0.411 4.509 1.234s1.587 1.948 1.587 3.376c0 1.058-0.319 1.957-0.957 2.696-0.621 0.739-1.478 1.234-2.57 1.486v-0.403c1.276 0.218 2.259 0.705 2.947 1.461 0.705 0.739 1.058 1.705 1.058 2.897 0 1.579-0.563 2.813-1.688 3.703-1.108 0.873-2.645 1.31-4.61 1.31h-8.464zM41.652 22.269h4.232c0.974 0 1.721-0.185 2.242-0.554s0.781-0.957 0.781-1.763c0-0.823-0.26-1.411-0.781-1.763-0.521-0.369-1.268-0.554-2.242-0.554h-4.232v4.635zM41.652 14.737h3.728c1.024 0 1.78-0.185 2.267-0.554s0.731-0.924 0.731-1.663c0-0.722-0.244-1.268-0.731-1.637s-1.243-0.554-2.267-0.554h-3.728v4.409zM55.162 25.192v-9.396c0-0.554-0.017-1.117-0.050-1.688-0.017-0.571-0.059-1.134-0.126-1.688h3.653l0.428 3.728h-0.579c0.168-0.907 0.437-1.654 0.806-2.242 0.386-0.588 0.856-1.024 1.411-1.31 0.571-0.285 1.218-0.428 1.94-0.428 0.319 0 0.571 0.017 0.756 0.050 0.185 0.017 0.37 0.059 0.554 0.126l-0.025 3.35c-0.353-0.151-0.655-0.244-0.907-0.277-0.235-0.050-0.537-0.076-0.907-0.076-0.705 0-1.293 0.134-1.763 0.403-0.453 0.269-0.798 0.663-1.033 1.184-0.218 0.521-0.328 1.15-0.328 1.889v6.373h-3.829zM65.545 25.192v-12.772h3.804v12.772h-3.804zM65.393 10.329v-3.552h4.081v3.552h-4.081zM77.471 25.469c-1.108 0-2.091-0.269-2.947-0.806-0.84-0.537-1.503-1.302-1.99-2.292-0.47-0.991-0.705-2.183-0.705-3.577 0-1.377 0.235-2.561 0.705-3.552s1.134-1.747 1.99-2.267c0.856-0.537 1.839-0.806 2.947-0.806 1.008 0 1.906 0.244 2.695 0.731 0.806 0.47 1.343 1.108 1.612 1.915h-0.328v-8.162h3.804v18.541h-3.754v-2.494h0.328c-0.269 0.84-0.806 1.512-1.612 2.015s-1.721 0.756-2.746 0.756zM78.604 22.597c0.874 0 1.579-0.311 2.116-0.932s0.806-1.579 0.806-2.872c0-1.293-0.269-2.242-0.806-2.847s-1.243-0.907-2.116-0.907c-0.874 0-1.587 0.302-2.141 0.907-0.537 0.605-0.806 1.553-0.806 2.847s0.269 2.25 0.806 2.872c0.554 0.621 1.268 0.932 2.141 0.932zM94.798 25.469c-2.217 0-3.947-0.596-5.189-1.789s-1.864-2.813-1.864-4.862c0-1.327 0.26-2.486 0.781-3.476 0.537-0.991 1.277-1.763 2.217-2.318 0.957-0.571 2.074-0.857 3.35-0.857 1.26 0 2.309 0.269 3.149 0.806 0.856 0.537 1.494 1.293 1.915 2.267 0.436 0.957 0.655 2.074 0.655 3.35v0.882h-8.943v-1.889h6.172l-0.428 0.353c0-1.058-0.219-1.856-0.655-2.393-0.42-0.554-1.033-0.831-1.839-0.831-0.89 0-1.579 0.328-2.066 0.982-0.47 0.655-0.705 1.595-0.705 2.821v0.403c0 1.243 0.302 2.166 0.907 2.771 0.622 0.605 1.511 0.907 2.67 0.907 0.688 0 1.335-0.084 1.94-0.252 0.622-0.185 1.209-0.47 1.763-0.857l1.058 2.519c-0.638 0.47-1.377 0.831-2.217 1.083-0.823 0.252-1.713 0.378-2.67 0.378z"></path>
<path fill="#000" style="fill: var(--color2, #000)" opacity="0.2" d="M31.319 0.681h-31.319v31.319h31.319v-31.319z"></path>
</symbol>
<symbol id="icon-company-4" viewBox="0 0 121 32">
<path fill="#1c2752" style="fill: var(--color1, #1c2752)" opacity="0.4" d="M43.961 21.726c-0.233 0.151-0.569 0.336-1.008 0.555-0.425 0.206-0.933 0.384-1.522 0.535-0.576 0.151-1.207 0.219-1.893 0.206-1.166-0.014-2.208-0.219-3.127-0.617s-1.707-0.939-2.366-1.625c-0.645-0.699-1.138-1.495-1.481-2.386-0.343-0.905-0.514-1.865-0.514-2.88 0-1.125 0.178-2.153 0.535-3.086 0.37-0.946 0.885-1.762 1.543-2.448 0.658-0.699 1.433-1.241 2.325-1.625 0.905-0.384 1.893-0.576 2.962-0.576 0.905 0 1.728 0.123 2.469 0.37s1.365 0.528 1.872 0.843l-0.864 2.016c-0.398-0.274-0.891-0.535-1.481-0.782-0.576-0.247-1.221-0.37-1.934-0.37-0.933 0-1.797 0.247-2.592 0.741-0.782 0.494-1.413 1.159-1.893 1.995-0.466 0.837-0.699 1.776-0.699 2.818 0 1.056 0.213 2.002 0.638 2.839 0.439 0.837 1.056 1.495 1.851 1.975s1.728 0.72 2.798 0.72c0.768 0 1.44-0.117 2.016-0.35 0.59-0.233 1.070-0.501 1.44-0.802l0.926 1.934zM51.909 23.063c-0.631 0-1.241-0.137-1.831-0.411-0.576-0.288-1.029-0.679-1.358-1.173l0.123-0.638v6.151h-2.078v-12.878h1.79l0.288 2.119-0.206-0.597c0.411-0.507 0.926-0.919 1.543-1.234 0.631-0.329 1.337-0.494 2.119-0.494 0.809 0 1.536 0.192 2.181 0.576s1.152 0.926 1.522 1.625c0.37 0.686 0.555 1.495 0.555 2.427s-0.206 1.742-0.617 2.427c-0.398 0.672-0.946 1.193-1.646 1.563-0.699 0.357-1.495 0.535-2.386 0.535zM51.497 21.417c0.535 0 1.022-0.123 1.461-0.37 0.453-0.247 0.809-0.583 1.070-1.008 0.274-0.439 0.411-0.933 0.411-1.481 0-0.562-0.123-1.063-0.37-1.502s-0.583-0.782-1.008-1.029c-0.425-0.247-0.898-0.37-1.419-0.37-0.713 0-1.317 0.192-1.81 0.576-0.48 0.384-0.809 0.891-0.987 1.522v1.543c0.11 0.617 0.411 1.125 0.905 1.522s1.077 0.597 1.749 0.597zM60.933 14.258l0.185 1.872-0.103-0.165c0.315-0.645 0.761-1.145 1.337-1.502 0.59-0.37 1.262-0.555 2.016-0.555 0.713 0 1.31 0.165 1.79 0.494s0.775 0.795 0.885 1.399l-0.103 0.082c0.343-0.617 0.802-1.097 1.378-1.44 0.576-0.357 1.179-0.535 1.81-0.535 0.85 0 1.522 0.24 2.016 0.72 0.494 0.466 0.747 1.083 0.761 1.851v6.377h-2.057v-5.595c-0.014-0.439-0.117-0.802-0.309-1.090-0.178-0.288-0.507-0.446-0.987-0.473-0.494 0-0.933 0.151-1.317 0.453-0.37 0.302-0.665 0.693-0.885 1.173-0.206 0.48-0.315 0.994-0.329 1.543v3.991h-2.078v-5.595c-0.014-0.439-0.123-0.802-0.329-1.090-0.192-0.288-0.528-0.446-1.008-0.473-0.48 0-0.912 0.151-1.296 0.453-0.37 0.302-0.658 0.699-0.864 1.193-0.206 0.48-0.309 0.994-0.309 1.543v3.97h-2.078v-8.599h1.872zM81.299 23.063c-0.631 0-1.241-0.137-1.831-0.411-0.576-0.288-1.029-0.679-1.358-1.173l0.123-0.638v6.151h-2.078v-12.878h1.79l0.288 2.119-0.206-0.597c0.411-0.507 0.926-0.919 1.543-1.234 0.631-0.329 1.337-0.494 2.119-0.494 0.809 0 1.536 0.192 2.181 0.576s1.152 0.926 1.522 1.625c0.37 0.686 0.555 1.495 0.555 2.427s-0.206 1.742-0.617 2.427c-0.398 0.672-0.946 1.193-1.646 1.563-0.699 0.357-1.495 0.535-2.386 0.535zM80.888 21.417c0.535 0 1.022-0.123 1.461-0.37 0.453-0.247 0.809-0.583 1.070-1.008 0.274-0.439 0.411-0.933 0.411-1.481 0-0.562-0.123-1.063-0.37-1.502s-0.583-0.782-1.008-1.029c-0.425-0.247-0.898-0.37-1.419-0.37-0.713 0-1.317 0.192-1.81 0.576-0.48 0.384-0.809 0.891-0.987 1.522v1.543c0.11 0.617 0.411 1.125 0.905 1.522s1.077 0.597 1.749 0.597zM92.051 23.063c-0.809 0-1.543-0.171-2.201-0.514s-1.179-0.843-1.563-1.502c-0.384-0.672-0.576-1.502-0.576-2.489 0-0.96 0.199-1.783 0.597-2.469 0.411-0.699 0.946-1.234 1.605-1.605 0.672-0.384 1.399-0.576 2.181-0.576 0.823 0 1.502 0.171 2.037 0.514s0.946 0.754 1.234 1.234l-0.123 0.329 0.206-1.728h1.913v8.599h-2.078v-2.181l0.206 0.514c-0.055 0.11-0.171 0.267-0.35 0.473s-0.411 0.418-0.699 0.638c-0.288 0.206-0.638 0.384-1.049 0.535-0.398 0.151-0.843 0.226-1.337 0.226zM92.606 21.355c0.686 0 1.262-0.178 1.728-0.535 0.48-0.37 0.795-0.871 0.946-1.502v-1.769c-0.165-0.562-0.501-1.029-1.008-1.399-0.494-0.37-1.070-0.555-1.728-0.555-0.494 0-0.946 0.123-1.358 0.37-0.411 0.233-0.741 0.569-0.987 1.008-0.247 0.425-0.37 0.919-0.37 1.481 0 0.549 0.123 1.042 0.37 1.481 0.261 0.439 0.603 0.789 1.029 1.049 0.425 0.247 0.885 0.37 1.378 0.37zM102.477 14.258l0.185 1.995-0.082-0.288c0.274-0.617 0.713-1.111 1.317-1.481 0.617-0.37 1.337-0.555 2.16-0.555 0.809 0 1.474 0.24 1.995 0.72 0.521 0.466 0.789 1.083 0.802 1.851v6.357h-2.078v-5.637c-0.014-0.439-0.144-0.795-0.391-1.070-0.247-0.288-0.631-0.439-1.152-0.453-0.727 0-1.337 0.302-1.831 0.905-0.48 0.603-0.72 1.378-0.72 2.325v3.929h-2.078v-8.599h1.872zM112.555 26.992l5.657-12.734h1.913l-5.554 12.734h-2.016zM114.695 22.919l-4.135-8.661h2.325l3.435 7.611-1.625 1.049z"></path>
<path fill="#000" style="fill: var(--color2, #000)" opacity="0.2" d="M28.571 3.429h-28.571v28.571h28.571v-28.571z"></path>
</symbol>
</defs>
</svg>
