<svg aria-hidden="true" style="position:absolute;width:0;height:0;overflow:hidden" xmlns="http://www.w3.org/2000/svg"><defs><symbol id="icon-tel" viewBox="0 0 32 32"><path fill="none" stroke="#1c2752" style="stroke:var(--color1, #1c2752)" stroke-miterlimit="10" stroke-width="2.462" d="M29.847 24.377c-1.128-1.136-3.859-2.794-5.183-3.462-1.726-.869-1.868-.94-3.224.067-.905.672-1.506 1.273-2.565 1.047s-3.359-1.499-5.374-3.507c-2.014-2.008-3.361-4.375-3.588-5.43s.384-1.649 1.05-2.556c.939-1.278.868-1.491.065-3.216-.626-1.342-2.332-4.047-3.472-5.169-1.22-1.205-1.22-.992-2.006-.665-.64.269-1.254.597-1.834.978-1.136.755-1.767 1.382-2.208 2.324s-.639 3.151 1.638 7.288c2.277 4.137 3.875 6.252 7.182 9.549s5.85 5.07 9.567 7.155c4.599 2.575 6.362 2.073 7.307 1.633s1.575-1.065 2.331-2.201c.382-.579.71-1.192.98-1.832.327-.783.54-.783-.667-2.002z"/></symbol></defs></svg>