<svg aria-hidden="true" style="position:absolute;width:0;height:0;overflow:hidden" xmlns="http://www.w3.org/2000/svg"><defs><symbol id="icon-quotes" viewBox="0 0 43 32"><path fill="#1c2752" style="fill:var(--color1, #1c2752)" d="M35.299 2.597c-2.049.868-3.837 2.187-5.365 3.958s-2.448 3.576-2.76 5.417c-.174.972-.26 1.806-.26 2.5 0 .799.087 1.458.26 1.979 1.632-1.701 3.698-2.552 6.198-2.552s4.531.729 6.094 2.188 2.344 3.472 2.344 6.042c0 2.431-.833 4.41-2.5 5.937-1.632 1.528-3.715 2.292-6.25 2.292-3.472 0-6.007-1.25-7.604-3.75-.729-1.076-1.302-2.396-1.719-3.958a19.299 19.299 0 0 1-.625-4.896c0-3.646.937-6.979 2.812-10s4.67-5.382 8.385-7.083l.99 1.927zm-21.98 0c-2.049.868-3.837 2.187-5.365 3.958s-2.448 3.576-2.76 5.417c-.174.972-.26 1.806-.26 2.5 0 .799.087 1.458.26 1.979 1.632-1.701 3.698-2.552 6.198-2.552s4.531.729 6.094 2.188c1.562 1.458 2.344 3.472 2.344 6.042 0 2.431-.833 4.41-2.5 5.937-1.632 1.528-3.715 2.292-6.25 2.292-3.472 0-6.007-1.25-7.604-3.75-.729-1.076-1.302-2.396-1.719-3.958a19.299 19.299 0 0 1-.625-4.896c0-3.646.938-6.979 2.813-10S8.615 2.372 12.33.671l.99 1.927z"/></symbol><symbol id="icon-tel" viewBox="0 0 32 32"><path fill="none" stroke="#1c2752" style="stroke:var(--color1, #1c2752)" stroke-miterlimit="10" stroke-width="2.462" d="M29.847 24.377c-1.128-1.136-3.859-2.794-5.183-3.462-1.726-.869-1.868-.94-3.224.067-.905.672-1.506 1.273-2.565 1.047s-3.359-1.499-5.374-3.507c-2.014-2.008-3.361-4.375-3.588-5.43s.384-1.649 1.05-2.556c.939-1.278.868-1.491.065-3.216-.626-1.342-2.332-4.047-3.472-5.169-1.22-1.205-1.22-.992-2.006-.665-.64.269-1.254.597-1.834.978-1.136.755-1.767 1.382-2.208 2.324s-.639 3.151 1.638 7.288c2.277 4.137 3.875 6.252 7.182 9.549s5.85 5.07 9.567 7.155c4.599 2.575 6.362 2.073 7.307 1.633s1.575-1.065 2.331-2.201c.382-.579.71-1.192.98-1.832.327-.783.54-.783-.667-2.002z"/></symbol><symbol id="icon-notebook" viewBox="0 0 26 32"><path fill="none" stroke="#ffb342" style="stroke:var(--color2, #ffb342)" stroke-linejoin="round" stroke-linecap="round" stroke-width="2.37" d="M21.333 13.236v14.218c0 .406-.065.808-.192 1.183s-.312.716-.546 1.003c-.234.287-.512.515-.817.67s-.633.235-.964.235H3.703c-.668 0-1.309-.326-1.781-.905s-.738-1.366-.738-2.186V8.908c0-.82.265-1.606.738-2.186s1.113-.905 1.781-.905h10.545"/><path fill="#ffb342" style="fill:var(--color2, #ffb342)" d="M25.811.418c-.095-.128-.21-.231-.338-.302s-.267-.111-.407-.115c-.141-.004-.281.027-.411.091s-.249.16-.349.282l-.802.979c-.097.119-.152.281-.152.45s.055.33.152.45l.735.9c.048.059.105.107.168.139s.131.049.199.049.136-.017.199-.049.12-.079.169-.139l.782-.954c.395-.484.432-1.273.055-1.78zm-3.928 2.923-11.7 14.333a.76.76 0 0 0-.15.313l-.541 1.978c-.013.054-.014.111-.003.165s.034.104.066.143c.032.04.073.068.117.081s.091.013.134-.003l1.611-.664a.575.575 0 0 0 .255-.184l11.68-14.36c.108-.134.169-.315.169-.503s-.061-.369-.169-.503l-.645-.795c-.109-.134-.258-.209-.412-.209s-.302.075-.412.209z"/></symbol></defs></svg>