<svg aria-hidden="true" style="position:absolute;width:0;height:0;overflow:hidden" xmlns="http://www.w3.org/2000/svg"><defs><symbol id="icon-notebook" viewBox="0 0 26 32"><path fill="none" stroke="#ffb342" style="stroke:var(--color1, #ffb342)" stroke-linejoin="round" stroke-linecap="round" stroke-width="2.37" d="M21.333 13.236v14.218c0 .406-.065.808-.192 1.183s-.312.716-.546 1.003c-.234.287-.512.515-.817.67s-.633.235-.964.235H3.703c-.668 0-1.309-.326-1.781-.905s-.738-1.366-.738-2.186V8.908c0-.82.265-1.606.738-2.186s1.113-.905 1.781-.905h10.545"/><path fill="#ffb342" style="fill:var(--color1, #ffb342)" d="M25.811.418c-.095-.128-.21-.231-.338-.302s-.267-.111-.407-.115c-.141-.004-.281.027-.411.091s-.249.16-.349.282l-.802.979c-.097.119-.152.281-.152.45s.055.33.152.45l.735.9c.048.059.105.107.168.139s.131.049.199.049.136-.017.199-.049.12-.079.169-.139l.782-.954c.395-.484.432-1.273.055-1.78zm-3.928 2.923-11.7 14.333a.76.76 0 0 0-.15.313l-.541 1.978c-.013.054-.014.111-.003.165s.034.104.066.143c.032.04.073.068.117.081s.091.013.134-.003l1.611-.664a.575.575 0 0 0 .255-.184l11.68-14.36c.108-.134.169-.315.169-.503s-.061-.369-.169-.503l-.645-.795c-.109-.134-.258-.209-.412-.209s-.302.075-.412.209z"/></symbol></defs></svg>