<svg aria-hidden="true" style="position: absolute; width: 0; height: 0; overflow: hidden;" version="1.1" xmlns="http://www.w3.org/2000/svg" xmlns:xlink="http://www.w3.org/1999/xlink">
<defs>
<symbol id="icon-circle" viewBox="0 0 32 32">
<path fill="none" stroke="#ffb342" style="stroke: var(--color1, #ffb342)" stroke-linejoin="miter" stroke-linecap="butt" stroke-miterlimit="10" stroke-width="2.5263" d="M30.242 15.963c-0.002-7.885-6.394-14.277-14.279-14.279h-0c-7.885 0.002-14.277 6.394-14.279 14.279v0c0.002 7.885 6.394 14.277 14.279 14.279h0c7.885-0.002 14.277-6.394 14.279-14.279v-0z"></path>
</symbol>
<symbol id="icon-pencil" viewBox="0 0 32 32">
<path fill="#ffb342" style="fill: var(--color1, #ffb342)" d="M28.050 0.626c-0.136-0.185-0.305-0.337-0.499-0.449l-0.008-0.004c-0.186-0.108-0.409-0.171-0.647-0.171-0.211 0-0.411 0.050-0.587 0.139l0.008-0.003c-0.208 0.105-0.383 0.248-0.522 0.42l-0.002 0.003-1.202 1.468c-0.142 0.18-0.228 0.411-0.228 0.661 0 0.005 0 0.010 0 0.015v-0.001c0 0.252 0.082 0.494 0.228 0.674l1.102 1.351c0.071 0.089 0.158 0.16 0.252 0.208 0.087 0.045 0.19 0.072 0.299 0.072s0.212-0.027 0.302-0.074l-0.004 0.002c0.1-0.053 0.184-0.123 0.251-0.206l0.001-0.002 1.173-1.433c0.592-0.725 0.647-1.909 0.082-2.67zM22.158 5.013l-17.55 21.497c-0.106 0.131-0.185 0.289-0.224 0.462l-0.002 0.008-0.809 2.967c-0.010 0.040-0.015 0.085-0.015 0.132 0 0.041 0.004 0.081 0.013 0.119l-0.001-0.004c0.018 0.082 0.050 0.156 0.1 0.215 0.044 0.056 0.103 0.099 0.172 0.122l0.003 0.001c0.068 0.020 0.137 0.018 0.203-0.005l2.416-0.996c0.154-0.057 0.283-0.152 0.379-0.274l0.001-0.002 17.52-21.541c0.157-0.202 0.253-0.46 0.253-0.739 0-0.005-0-0.010-0-0.015v0.001c0-0.005 0-0.010 0-0.016 0-0.28-0.095-0.537-0.255-0.742l0.002 0.003-0.967-1.193c-0.144-0.188-0.367-0.309-0.618-0.315l-0.001-0c-0.251 0.006-0.473 0.128-0.616 0.313l-0.001 0.002z"></path>
</symbol>
<symbol id="icon-square" viewBox="0 0 32 32">
<path fill="none" stroke="#ffb342" style="stroke: var(--color1, #ffb342)" stroke-linejoin="round" stroke-linecap="round" stroke-miterlimit="4" stroke-width="2.6667" d="M27.333 10.891v15.996c0 0.456-0.073 0.908-0.216 1.331-0.145 0.433-0.354 0.807-0.619 1.135l0.005-0.007c-0.25 0.309-0.556 0.562-0.904 0.746l-0.016 0.008c-0.315 0.166-0.688 0.264-1.084 0.265h-17c-0.752 0-1.472-0.367-2.004-1.019-0.531-0.653-0.829-1.536-0.829-2.459v-20.864c0-0.923 0.299-1.807 0.829-2.459 0.532-0.653 1.253-1.019 2.004-1.019h11.863"></path>
</symbol>
<symbol id="icon-circle-orange" viewBox="0 0 32 32">
<path fill="#ffb342" style="fill: var(--color1, #ffb342)" d="M16 32c8.837 0 16-7.163 16-16s-7.163-16-16-16-16 7.163-16 16 7.163 16 16 16z"></path>
</symbol>
<symbol id="icon-Vector-black" viewBox="0 0 32 32">
<path fill="none" stroke="#1c2752" style="stroke: var(--color2, #1c2752)" stroke-linejoin="round" stroke-linecap="round" stroke-miterlimit="4" stroke-width="4.2667" d="M29.867 4.267l-19.413 23.467-8.32-8.8"></path>
</symbol>
<symbol id="icon-Vector-orange" viewBox="0 0 32 32">
<path fill="none" stroke="#ffb342" style="stroke: var(--color1, #ffb342)" stroke-linejoin="round" stroke-linecap="round" stroke-miterlimit="4" stroke-width="4.3636" d="M28.268 5.658l-17.265 20.553-7.395-8.221"></path>
</symbol>
<symbol id="icon-prise" viewBox="0 0 26 32">
<path fill="none" stroke="#ffb342" style="stroke: var(--color1, #ffb342)" stroke-linejoin="round" stroke-linecap="round" stroke-miterlimit="4" stroke-width="2.3704" d="M21.333 13.236v14.219c0 0.405-0.065 0.807-0.192 1.183-0.129 0.385-0.315 0.718-0.55 1.009l0.005-0.006c-0.222 0.275-0.494 0.5-0.804 0.663l-0.014 0.007c-0.28 0.147-0.611 0.234-0.963 0.236h-15.112c-0.668 0-1.308-0.326-1.781-0.905-0.472-0.581-0.737-1.365-0.737-2.185v-18.546c0-0.82 0.265-1.606 0.737-2.185 0.473-0.581 1.114-0.905 1.781-0.905h10.545"></path>
<path fill="#ffb342" style="fill: var(--color1, #ffb342)" d="M25.811 0.417c-0.090-0.123-0.203-0.224-0.333-0.299l-0.005-0.003c-0.124-0.072-0.273-0.114-0.431-0.114-0.141 0-0.274 0.033-0.392 0.093l0.005-0.002c-0.139 0.070-0.255 0.165-0.348 0.28l-0.002 0.002-0.801 0.979c-0.095 0.12-0.152 0.274-0.152 0.441 0 0.003 0 0.007 0 0.010v-0c0 0.168 0.055 0.329 0.152 0.449l0.735 0.901c0.047 0.059 0.105 0.107 0.168 0.139 0.058 0.030 0.126 0.048 0.199 0.048s0.141-0.018 0.202-0.049l-0.002 0.001c0.067-0.035 0.123-0.082 0.168-0.138l0.001-0.001 0.782-0.955c0.395-0.484 0.431-1.273 0.055-1.78zM21.883 3.342l-11.7 14.331c-0.071 0.087-0.123 0.193-0.15 0.308l-0.001 0.005-0.54 1.978c-0.007 0.026-0.010 0.057-0.010 0.088 0 0.027 0.003 0.054 0.008 0.080l-0-0.003c0.012 0.055 0.033 0.104 0.066 0.143 0.030 0.037 0.069 0.066 0.114 0.081l0.002 0c0.045 0.013 0.091 0.012 0.135-0.004l1.611-0.664c0.103-0.038 0.188-0.101 0.253-0.183l0.001-0.001 11.68-14.361c0.105-0.135 0.168-0.306 0.168-0.493 0-0.003-0-0.007-0-0.010v0c0-0.003 0-0.007 0-0.011 0-0.186-0.063-0.358-0.17-0.495l0.001 0.002-0.645-0.795c-0.096-0.125-0.244-0.206-0.412-0.21h-0.001c-0.168 0.004-0.315 0.085-0.41 0.209l-0.001 0.001z"></path>
</symbol>
<symbol id="icon-casca" viewBox="0 0 27 32">
<path fill="#ffb342" style="fill: var(--color1, #ffb342)" d="M24.183 19.677h2.988v-2.577h-8.639c-0.157 2.674-2.319 4.795-4.962 4.795s-4.805-2.121-4.962-4.795h-8.079v2.577h2.467c0.132 0.53 0.305 1.049 0.512 1.56 0.236 0.575 0.515 1.124 0.839 1.644l-2.159 2.218 3.4 3.494 2.162-2.222c0.5 0.326 1.028 0.61 1.578 0.849 0.619 0.268 1.257 0.478 1.908 0.623v3.090h4.814v-3.116c0.613-0.145 1.213-0.345 1.798-0.597 0.591-0.255 1.153-0.562 1.684-0.917l2.124 2.183 3.403-3.497-2.159-2.218c0.295-0.488 0.55-1.001 0.77-1.534 0.207-0.51 0.38-1.030 0.512-1.56z"></path>
<path fill="#ffb342" style="fill: var(--color1, #ffb342)" d="M22.899 5.889v5.203c0 0.353-0.281 0.64-0.627 0.64h-0.444c-0.346 0-0.627-0.286-0.627-0.64v-6.556c-1.287-0.873-2.731-1.526-4.279-1.899v9.027c0 0.353-0.281 0.639-0.627 0.639h-4.9c-0.346 0-0.627-0.286-0.627-0.639v-9.027c-1.529 0.373-2.973 1.033-4.26 1.899v6.556c0 0.353-0.281 0.64-0.627 0.64h-0.444c-0.346 0-0.627-0.286-0.627-0.64v-5.203c-2.626 2.478-4.279 6.016-4.279 9.953h26.642c0.007-3.937-1.64-7.475-4.273-9.953z"></path>
<path fill="#ffb342" style="fill: var(--color1, #ffb342)" d="M15.667 10.588c0 0.298-0.21 0.539-0.475 0.539h-2.684c-0.258 0-0.474-0.241-0.474-0.538v-8.984c0-0.298 0.21-0.538 0.474-0.538h2.684c0.258 0 0.475 0.241 0.475 0.538v8.984z"></path>
</symbol>
<symbol id="icon-images-vector-dark" viewBox="0 0 32 32">
<path fill="#ffb342" style="fill: var(--color1, #ffb342)" d="M16 32c8.837 0 16-7.163 16-16s-7.163-16-16-16-16 7.163-16 16 7.163 16 16 16z"></path>
<path fill="none" stroke="#1c2752" style="stroke: var(--color2, #1c2752)" stroke-linejoin="round" stroke-linecap="round" stroke-miterlimit="4" stroke-width="2" d="M23 11l-9.1 11-3.9-4.125"></path>
</symbol>
</defs>
</svg>
