<svg width="26" height="26" fill="none" xmlns="http://www.w3.org/2000/svg"><path d="M24.25 19.806c-.915-.923-3.134-2.27-4.21-2.813-1.403-.706-1.518-.764-2.62.055-.735.546-1.224 1.034-2.084.851-.86-.184-2.73-1.218-4.366-2.85-1.637-1.63-2.731-3.554-2.915-4.411-.184-.858.312-1.34.853-2.077.763-1.039.705-1.212.053-2.614-.508-1.09-1.895-3.288-2.821-4.2-.991-.978-.991-.805-1.63-.54a9.24 9.24 0 0 0-1.49.794c-.923.614-1.436 1.123-1.794 1.889-.358.765-.52 2.56 1.33 5.92 1.851 3.362 3.15 5.08 5.836 7.76 2.687 2.679 4.753 4.12 7.773 5.813 3.736 2.092 5.17 1.684 5.937 1.327.768-.358 1.28-.866 1.895-1.788.31-.471.576-.97.796-1.489.266-.636.439-.636-.542-1.627Z" stroke="#1C2752" stroke-width="2" stroke-miterlimit="10"/></svg>