<svg aria-hidden="true" style="position: absolute; width: 0; height: 0; overflow: hidden;" version="1.1" xmlns="http://www.w3.org/2000/svg" xmlns:xlink="http://www.w3.org/1999/xlink">
<defs>
<symbol id="icon-phone" viewBox="0 0 32 32">
<path fill="none" stroke="#1c2752" style="stroke: var(--color1, #1c2752)" stroke-linejoin="miter" stroke-linecap="butt" stroke-miterlimit="10" stroke-width="2.4615" d="M29.846 24.377c-1.126-1.136-3.857-2.794-5.182-3.462-1.727-0.869-1.868-0.94-3.225 0.068-0.905 0.672-1.506 1.273-2.565 1.047-1.058-0.226-3.36-1.499-5.374-3.508-2.015-2.006-3.361-4.374-3.588-5.429-0.226-1.056 0.384-1.649 1.050-2.556 0.939-1.279 0.868-1.492 0.065-3.217-0.625-1.342-2.332-4.047-3.472-5.169-1.22-1.204-1.22-0.991-2.006-0.665-0.706 0.3-1.309 0.627-1.876 1.003l0.042-0.026c-1.136 0.756-1.767 1.382-2.208 2.325-0.441 0.942-0.64 3.151 1.637 7.286 2.278 4.138 3.877 6.252 7.183 9.551 3.307 3.297 5.85 5.071 9.567 7.154 4.598 2.575 6.363 2.073 7.307 1.633 0.945-0.441 1.575-1.066 2.332-2.201 0.382-0.58 0.709-1.194 0.98-1.833 0.327-0.783 0.54-0.783-0.667-2.002z"></path>
</symbol>
<symbol id="icon-facebook" viewBox="0 0 34 32">
<path fill="#1c2752" style="fill: var(--color1, #1c2752)" d="M32.916 16.901c0-8.427-7.095-15.259-15.845-15.259-8.752 0-15.847 6.834-15.847 15.259 0 7.616 5.796 13.929 13.369 15.076v-10.663h-4.021v-4.412h4.025v-3.36c0-3.824 2.364-5.938 5.986-5.938 1.733 0 3.547 0.297 3.547 0.297v3.756h-1.998c-1.968 0-2.583 1.175-2.583 2.384v2.862h4.395l-0.702 4.411h-3.692v10.663c7.577-1.145 13.369-7.458 13.369-15.076z"></path>
</symbol>
<symbol id="icon-pinterest" viewBox="0 0 32 32">
<path fill="#1c2752" style="fill: var(--color1, #1c2752)" d="M15.823 0c-8.423 0-15.251 6.826-15.251 15.247 0 6.24 3.759 11.604 9.132 13.965-0.042-1.061-0.007-2.341 0.264-3.498l1.962-8.31s-0.49-0.973-0.49-2.41c0-2.26 1.307-3.948 2.941-3.948 1.389 0 2.056 1.041 2.056 2.287 0 1.395-0.893 3.478-1.347 5.411-0.382 1.62 0.808 2.934 2.41 2.934 2.887 0 4.834-3.71 4.834-8.108 0-3.341-2.253-5.839-6.346-5.839-4.623 0-7.512 3.451-7.512 7.303 0 1.327 0.396 2.267 1.011 2.988 0.278 0.333 0.32 0.472 0.217 0.852-0.076 0.278-0.239 0.952-0.313 1.224-0.103 0.387-0.416 0.524-0.763 0.381-2.132-0.871-3.126-3.2-3.126-5.826 0-4.328 3.656-9.523 10.902-9.523 5.822 0 9.656 4.214 9.656 8.733 0 5.984-3.33 10.449-8.232 10.449-1.647 0-3.193-0.893-3.725-1.9 0 0-0.884 3.512-1.075 4.194-0.32 1.177-0.953 2.348-1.533 3.267 1.294 0.396 2.782 0.624 4.323 0.625h0.001c8.424 0 15.254-6.826 15.254-15.245 0-8.421-6.823-15.254-15.247-15.254z"></path>
</symbol>
<symbol id="icon-instagram" viewBox="0 0 30 32">
<path fill="#1c2752" style="fill: var(--color1, #1c2752)" d="M21.267 3.966c1.657 0.005 3.245 0.64 4.418 1.768 1.124 1.074 1.825 2.581 1.836 4.252v12.047c-0.011 1.673-0.712 3.18-1.834 4.252l-0.002 0.002c-1.146 1.095-2.702 1.768-4.416 1.768-0.001 0-0.001 0-0.002 0h-12.51c-0 0-0.001 0-0.002 0-1.714 0-3.27-0.674-4.419-1.771l0.002 0.002c-1.124-1.074-1.825-2.581-1.836-4.252v-12.047c0.010-1.673 0.712-3.18 1.834-4.252l0.002-0.002c1.146-1.095 2.702-1.768 4.416-1.768 0.001 0 0.002 0 0.003 0h12.51zM21.267 1.558h-12.51c-4.815-0.002-8.756 3.791-8.756 8.429v12.045c0 4.638 3.941 8.433 8.758 8.433h12.509c4.817 0 8.758-3.795 8.758-8.433v-12.044c0-4.638-3.941-8.433-8.758-8.433z"></path>
<path fill="#1c2752" style="fill: var(--color1, #1c2752)" d="M23.141 9.989c-0.371 0-0.733-0.106-1.041-0.303-0.304-0.197-0.542-0.473-0.686-0.8l-0.005-0.012c-0.091-0.204-0.144-0.442-0.144-0.693 0-0.124 0.013-0.246 0.038-0.363l-0.002 0.011c0.072-0.35 0.253-0.674 0.514-0.926 0.263-0.253 0.596-0.423 0.96-0.493 0.365-0.069 0.741-0.034 1.085 0.103 0.344 0.138 0.637 0.369 0.842 0.665 0.198 0.281 0.316 0.63 0.316 1.007 0 0.502-0.21 0.956-0.548 1.276l-0.001 0.001c-0.346 0.327-0.814 0.529-1.329 0.529h-0zM15.011 11.193c0.99 0 1.957 0.283 2.779 0.813 0.825 0.529 1.465 1.28 1.844 2.163 0.379 0.879 0.478 1.849 0.286 2.784-0.21 0.978-0.695 1.82-1.369 2.466l-0.002 0.002c-0.699 0.674-1.592 1.132-2.562 1.319-0.293 0.059-0.631 0.093-0.976 0.093-0.69 0-1.349-0.135-1.951-0.38l0.035 0.012c-0.925-0.372-1.688-0.984-2.235-1.759l-0.011-0.016c-0.527-0.747-0.842-1.675-0.844-2.678v-0c0-1.277 0.529-2.501 1.467-3.405 0.915-0.875 2.158-1.413 3.527-1.413 0.003 0 0.007 0 0.010 0h-0.001zM15.011 8.785c-0.003 0-0.007 0-0.010 0-1.545 0-2.983 0.454-4.19 1.236l0.030-0.018c-1.217 0.786-2.167 1.891-2.745 3.197l-0.018 0.047c-0.361 0.815-0.572 1.766-0.572 2.767 0 0.499 0.052 0.986 0.152 1.456l-0.008-0.046c0.314 1.466 1.041 2.729 2.052 3.698l0.003 0.002c1.028 0.986 2.337 1.687 3.795 1.971l0.048 0.008c1.455 0.278 2.964 0.135 4.335-0.413 1.387-0.558 2.532-1.475 3.353-2.638l0.016-0.023c0.825-1.189 1.267-2.587 1.267-4.015 0-1.918-0.792-3.756-2.2-5.112-1.371-1.31-3.234-2.117-5.285-2.117-0.007 0-0.014 0-0.022 0h0.001z"></path>
</symbol>
<symbol id="icon-mail" viewBox="0 0 41 32">
<path fill="none" stroke="#1c2752" style="stroke: var(--color1, #1c2752)" stroke-linejoin="round" stroke-linecap="round" stroke-miterlimit="4" stroke-width="2.9091" d="M35.636 1.455h-30.545c-2.008 0-3.636 1.628-3.636 3.636v0 21.818c0 2.008 1.628 3.636 3.636 3.636v0h30.545c2.008 0 3.636-1.628 3.636-3.636v0-21.818c0-2.008-1.628-3.636-3.636-3.636v0z"></path>
<path fill="none" stroke="#1c2752" style="stroke: var(--color1, #1c2752)" stroke-linejoin="round" stroke-linecap="round" stroke-miterlimit="4" stroke-width="2.9091" d="M7.273 7.273l13.091 10.182 13.091-10.182"></path>
</symbol>
<symbol id="icon-twitter" viewBox="0 0 38 32">
<path fill="#1c2752" style="fill: var(--color1, #1c2752)" d="M36.662 5.005c-1.349 0.586-2.776 0.972-4.236 1.146 1.535-0.899 2.688-2.326 3.245-4.015-1.451 0.848-3.035 1.444-4.686 1.76-0.695-0.728-1.531-1.308-2.457-1.703s-1.923-0.598-2.929-0.596c-4.076 0-7.375 3.251-7.375 7.258-0.003 0.557 0.061 1.113 0.19 1.655-2.923-0.137-5.785-0.883-8.403-2.189s-4.935-3.145-6.802-5.398c-0.655 1.104-1.001 2.364-1.003 3.648 0 2.517 1.313 4.741 3.296 6.044-1.175-0.028-2.325-0.339-3.354-0.906v0.090c0 3.52 2.547 6.449 5.917 7.115-0.634 0.169-1.287 0.255-1.943 0.255-0.465 0.001-0.93-0.044-1.386-0.135 0.937 2.884 3.664 4.981 6.895 5.041-2.625 2.023-5.848 3.116-9.162 3.108-0.588-0.001-1.176-0.036-1.76-0.105 3.371 2.153 7.29 3.291 11.29 3.281 13.584 0 21.005-11.063 21.005-20.657 0-0.315-0.008-0.629-0.023-0.936 1.441-1.025 2.687-2.298 3.68-3.76z"></path>
</symbol>
</defs>
</svg>
