<svg width="23" height="27" viewBox="0 0 23 27" fill="none" xmlns="http://www.w3.org/2000/svg">
<path d="M20.4043 16.6027H22.9258V14.4285H15.6369C15.5043 16.6844 13.6801 18.4744 11.4502 18.4744C9.2203 18.4744 7.39608 16.6844 7.26351 14.4285H0.446534L0.446533 16.6027H2.52795C2.63932 17.0495 2.78515 17.4882 2.96015 17.9186C3.15901 18.4036 3.39499 18.8667 3.66809 19.3054L1.84652 21.1772L4.71543 24.1252L6.53965 22.2507C6.96124 22.5259 7.40669 22.7657 7.8707 22.9672C8.39304 23.1934 8.93129 23.3704 9.48015 23.4931V26.1005H13.5422V23.4713C14.0593 23.3486 14.5657 23.1798 15.0589 22.9672C15.5573 22.7519 16.032 22.4932 16.4801 22.1935L18.2725 24.0353L21.144 21.0846L19.3225 19.2128C19.5717 18.8014 19.7865 18.3682 19.9721 17.9186C20.1471 17.4882 20.2929 17.0495 20.4043 16.6027Z" fill="#FFB342"/>
<path d="M19.3207 4.96926V9.35949C19.3207 9.65742 19.0837 9.89914 18.7916 9.89914H18.4167C18.1246 9.89914 17.8875 9.65742 17.8875 9.35949V3.82815C16.8016 3.09176 15.5834 2.54087 14.277 2.22607V9.84293C14.277 10.1409 14.0399 10.3826 13.7478 10.3826H9.61353C9.32137 10.3826 9.08435 10.1409 9.08435 9.84293V2.22607C7.79446 2.54087 6.57624 3.09737 5.49031 3.82815V9.35949C5.49031 9.65742 5.25328 9.89914 4.96112 9.89914H4.58629C4.29413 9.89914 4.0571 9.65742 4.0571 9.35949V4.96926C1.84115 7.06038 0.446533 10.0453 0.446533 13.3675H22.9258C22.9313 10.0453 21.5422 7.06038 19.3207 4.96926Z" fill="#FFB342"/>
<path d="M13.2189 8.93373C13.2189 9.18497 13.0416 9.3881 12.8185 9.3881H10.5538C10.3365 9.3881 10.1535 9.18497 10.1535 8.93373V1.35378C10.1535 1.10255 10.3308 0.899414 10.5538 0.899414H12.8185C13.0359 0.899414 13.2189 1.10255 13.2189 1.35378V8.93373Z" fill="#FFB342"/>
</svg>
